<?xml version="1.0" encoding="UTF-8"?>
<svg version="1.1" xmlns="http://www.w3.org/2000/svg" width="495" height="504">
<path d="M0 0 C1.45978324 -0.00576172 1.45978324 -0.00576172 2.94905704 -0.01163983 C4.01051773 -0.01077335 5.07197842 -0.00990687 6.16560459 -0.00901413 C7.2993099 -0.01198525 8.43301521 -0.01495637 9.60107523 -0.01801753 C13.4085269 -0.0267046 17.21594713 -0.02821281 21.02340794 -0.02970505 C23.7501656 -0.03379595 26.47691996 -0.03933752 29.20367527 -0.04475021 C36.61937032 -0.05832295 44.03505996 -0.06435712 51.45076537 -0.06876087 C56.08539395 -0.07152612 60.72002046 -0.07576409 65.35464764 -0.08026505 C78.19748236 -0.09245828 91.04031543 -0.10275622 103.88315582 -0.10614014 C104.70492189 -0.1063597 105.52668795 -0.10657927 106.37335602 -0.10680549 C107.60889636 -0.10713291 107.60889636 -0.10713291 108.8693971 -0.10746694 C110.53840983 -0.1079104 112.20742256 -0.10835696 113.87643528 -0.10880661 C114.70431695 -0.10902804 115.53219862 -0.10924947 116.38516761 -0.10947761 C129.78375962 -0.11342109 143.18229709 -0.1308611 156.58086806 -0.15416613 C170.35142723 -0.17792383 184.1219591 -0.19034406 197.89253908 -0.19150805 C205.61824422 -0.19242254 213.34387837 -0.1981173 221.06956387 -0.21632767 C227.65191507 -0.23178867 234.23417335 -0.2368141 240.81653928 -0.22858956 C244.17023677 -0.22470358 247.52359663 -0.22716921 250.87729549 -0.23964691 C282.99268916 -0.35208238 282.99268916 -0.35208238 296.44162083 6.94392776 C297.45192356 7.47276566 297.45192356 7.47276566 298.48263645 8.01228714 C303.3762698 10.62760429 307.91562352 13.42484247 312.06662083 17.13142776 C312.70470676 17.67799026 313.3427927 18.22455276 314.00021458 18.78767776 C328.81553907 32.41893149 334.74561303 50.48299365 336.06662083 70.13142776 C336.4029135 78.4577291 336.33067486 86.79253329 336.30954075 95.12385941 C336.31061581 97.60283839 336.3125578 100.08181712 336.31529331 102.56079483 C336.31961069 108.55499707 336.31474669 114.54912577 336.30544301 120.54331691 C336.2949737 127.54444087 336.29513145 134.54555329 336.29561559 141.5466836 C336.29611446 154.04963408 336.28700227 166.55255883 336.27243137 179.05550003 C336.25834454 191.14958032 336.2512609 203.24363799 336.25192356 215.33772659 C336.25196352 216.08291072 336.25200347 216.82809485 336.25204464 217.59586031 C336.25208499 218.33983828 336.25212535 219.08381624 336.25216693 219.850339 C336.25285923 233.67577205 336.24695311 247.50119561 336.23801371 261.32662557 C336.23501515 266.190948 336.23393628 271.05526866 336.23348141 275.9195919 C336.23272247 282.48197883 336.22631881 289.04434537 336.21631527 295.60672569 C336.21341405 298.00434094 336.21216003 300.40195888 336.21274281 302.79957581 C336.21701496 331.09457768 336.11551785 357.60414672 315.06662083 379.13142776 C300.2281738 393.21007479 282.18563941 399.28863996 261.99923801 399.27186966 C260.88101249 399.27484078 259.76278696 399.2778119 258.61067581 399.28087306 C254.86160824 399.28954834 251.11257264 399.29106734 247.36349583 399.29256058 C244.67599939 399.29718965 241.98850583 399.30219406 239.30101109 399.30760574 C231.99694196 399.32116891 224.69287834 399.32721097 217.38879871 399.3316164 C212.82334623 399.3343829 208.25789586 399.33862105 203.6924448 399.34312057 C191.03915127 399.35531186 178.38585943 399.36561064 165.73256016 399.36899567 C164.51851941 399.36932502 164.51851941 399.36932502 163.27995259 399.36966102 C162.06308409 399.36998843 162.06308409 399.36998843 160.82163239 399.37032247 C159.17787202 399.37076592 157.53411166 399.37121249 155.8903513 399.37166214 C155.07499759 399.37188357 154.25964388 399.372105 153.41958249 399.37233314 C140.221516 399.37627728 127.02350485 399.39372018 113.82545972 399.41702166 C100.25827109 399.4407804 86.69111017 399.45319961 73.12390041 399.45436358 C65.51334588 399.45527794 57.90286342 399.46096943 50.29232883 399.4791832 C43.80881554 399.49464553 37.32539659 399.49966881 30.84186834 399.49144509 C27.53882646 399.4875598 24.23601229 399.49002253 20.93298626 399.50250244 C-3.25732404 399.58850609 -24.34593047 397.32348179 -42.96853542 380.18611526 C-57.08563153 365.42350582 -64.18591392 348.21082899 -64.61279202 327.91353226 C-64.64589596 326.7882888 -64.6789999 325.66304534 -64.71310699 324.50370359 C-65.02776108 312.87620071 -65.07450504 301.2487355 -65.0627737 289.61775589 C-65.06413397 287.29832812 -65.06591737 284.97890057 -65.06808376 282.65947342 C-65.07258179 276.44925325 -65.07090104 270.23904998 -65.06770468 264.02882957 C-65.06514353 257.48437459 -65.06752872 250.9399209 -65.06909084 244.39546585 C-65.07121421 232.72237318 -65.0679434 221.04928754 -65.06283151 209.37619609 C-65.05835709 198.83268885 -65.05914916 188.28919262 -65.06375027 177.74568558 C-65.06912258 165.42960015 -65.07108341 153.11352172 -65.068138 140.79743528 C-65.06658815 134.30378804 -65.06634596 127.81014836 -65.06967449 121.31650162 C-65.07258424 115.21608737 -65.07052104 109.11569373 -65.06478024 103.01528168 C-65.06346964 100.7910414 -65.06381743 98.56679936 -65.0660429 96.34255981 C-65.07516854 86.28754747 -65.04322823 76.24077433 -64.56591702 66.19527054 C-64.53765493 65.49785075 -64.50939284 64.80043096 -64.48027432 64.08187723 C-63.59054252 48.26462119 -56.22390171 33.84797777 -45.93337917 22.13142776 C-45.02459011 21.07955276 -45.02459011 21.07955276 -44.09744167 20.00642776 C-33.27559795 8.31701008 -16.10136648 0.02394888 0 0 Z M7.06662083 72.13142776 C6.80549917 76.93738286 6.87171465 81.75649249 6.87912083 86.56892776 C6.87972507 87.27671371 6.88032932 87.98449966 6.88095188 88.71373367 C6.96726581 125.76504103 16.76022976 157.42561592 42.06662083 185.13142776 C43.13976536 186.3283223 43.13976536 186.3283223 44.23458958 187.54939651 C67.6035866 212.32141024 101.1720063 224.36686789 134.63668919 225.48274612 C150.67552143 225.66758238 165.99183198 222.34168144 181.06662083 217.13142776 C183.47848811 216.30478987 185.89491593 215.49128555 188.31662083 214.69392776 C189.33240208 214.34459183 190.34818333 213.99525589 191.39474583 213.63533401 C194.57621653 213.0353198 195.39313138 213.41441058 198.06662083 215.13142776 C199.30450535 216.84770584 199.30450535 216.84770584 200.35324192 218.93172073 C200.75400944 219.7136882 201.15477695 220.49565567 201.56768894 221.30131912 C201.98757084 222.15017685 202.40745274 222.99903458 202.84005833 223.87361526 C203.28628544 224.75236313 203.73251255 225.63111099 204.1922617 226.53648758 C205.61986686 229.35432703 207.03087301 232.18011728 208.44162083 235.00642776 C209.38325135 236.87155563 210.32594854 238.73614539 211.26974583 240.60017776 C213.08002951 244.17903353 214.87827068 247.76353739 216.66720676 251.35310745 C218.10154292 254.22644083 219.55781522 257.08317096 221.06759739 259.91756058 C221.61641575 260.96008987 222.16523411 262.00261917 222.73068333 263.07674026 C223.42218479 264.35702103 223.42218479 264.35702103 224.12765598 265.66316605 C225.2487201 268.61011306 225.23670263 271.00453918 225.06662083 274.13142776 C178.02937087 298.25309441 123.20584104 301.41956824 73.05099583 285.56892776 C51.29686206 278.43252867 31.54647417 268.0430449 13.51974583 253.94392776 C11.40087192 252.37839036 9.42650555 251.26457178 7.06662083 250.13142776 C7.04348284 260.00605079 7.02569828 269.88066739 7.01480865 279.75531197 C7.00958303 284.34016627 7.00249116 288.92500208 6.99118137 293.50984573 C6.98034116 297.93184593 6.97434157 302.3538283 6.97174358 306.77584076 C6.96989139 308.4655892 6.96627469 310.15533663 6.96089077 311.84507751 C6.95366531 314.20601154 6.95263053 316.56687123 6.95309544 318.92781448 C6.94950016 319.63128006 6.94590488 320.33474564 6.94220066 321.05952835 C6.90326059 324.71861841 6.90326059 324.71861841 8.06662083 328.13142776 C40.53509073 328.15421743 73.00355835 328.17192557 105.47203442 328.18249309 C109.30117066 328.18374387 113.13030688 328.18503819 116.95944309 328.18635941 C118.10295978 328.18675287 118.10295978 328.18675287 119.26957781 328.18715429 C131.62967002 328.19151114 143.98975761 328.19939877 156.34984707 328.20858056 C169.02294068 328.21791668 181.69603186 328.22348329 194.36912876 328.22551626 C202.1954388 328.22689157 210.02173576 328.23124262 217.84804178 328.23934423 C223.83907892 328.24523186 229.83010469 328.24588683 235.82114506 328.24453545 C238.28632596 328.24481198 240.75150733 328.24681973 243.2166853 328.25063324 C246.56633563 328.25556352 249.91592868 328.25442852 253.26558018 328.25168228 C254.25485915 328.25459512 255.24413813 328.25750796 256.26339525 328.26050907 C257.15365217 328.25851803 258.04390909 328.25652698 258.96114349 328.25447559 C260.12251812 328.25504517 260.12251812 328.25504517 261.30735487 328.25562626 C263.09389042 328.32267676 263.09389042 328.32267676 264.06662083 327.13142776 C264.19288062 324.73631779 264.25534106 322.37183098 264.26974583 319.97517776 C264.2754459 319.24004959 264.28114597 318.50492142 264.28701878 317.74751663 C264.29649909 316.17709676 264.3030147 314.60665672 264.3068552 313.03621292 C264.31635671 310.69646622 264.34725659 308.35767872 264.37912083 306.01814651 C264.57519055 278.31185984 256.48174606 251.55208663 240.06662083 229.13142776 C239.51490208 228.36830276 238.96318333 227.60517776 238.39474583 226.81892776 C217.46542909 198.91317212 187.88178007 180.01739463 153.32174778 174.52840042 C129.14400605 171.5798511 105.75296153 175.18439221 83.30880833 184.24470901 C80.48391905 185.36186906 79.06967261 185.79063425 76.06662083 185.13142776 C73.67731202 182.84831046 71.96222815 180.80230712 70.06662083 178.13142776 C69.46978489 177.30127151 68.87294895 176.47111526 68.25802708 175.61580276 C62.85939012 167.49069122 59.24334275 158.83962552 55.65548801 149.79768753 C53.47450071 144.32961531 51.15536081 139.20792601 48.08883762 134.17537308 C46.89689438 131.79205595 46.33280503 129.78331145 46.06662083 127.13142776 C49.70798749 122.14730715 54.49018325 120.31619829 60.06662083 118.19392776 C60.94092747 117.8540181 61.81523411 117.51410843 62.71603489 117.16389847 C111.83987376 98.52151537 166.21189401 98.3351678 214.44552708 119.93220901 C231.07446289 127.61481449 245.46330152 136.70932262 259.96115208 147.82283401 C262.55544927 150.23086156 262.55544927 150.23086156 264.06662083 150.13142776 C264.06662083 124.06142776 264.06662083 97.99142776 264.06662083 71.13142776 C231.47075487 71.10940147 198.87489611 71.09092996 166.27902496 71.08036244 C162.43486745 71.07911166 158.59070996 71.07781734 154.74655247 71.07649612 C153.9812174 71.07623381 153.21588233 71.0759715 152.42735528 71.07570124 C140.01876413 71.07134439 127.61017759 71.06345676 115.20158917 71.05427497 C102.47877502 71.04493886 89.75596329 71.03937225 77.03314584 71.03733927 C69.17612636 71.03596395 61.31911991 71.0316129 53.46210443 71.0235113 C47.44756627 71.01762369 41.43303942 71.01696869 35.41849804 71.01832008 C32.9436418 71.01804355 30.46878509 71.01603579 27.99393177 71.01222229 C24.63114432 71.00729204 21.26841394 71.008427 17.90562534 71.01117325 C16.91245542 71.00826041 15.9192855 71.00534757 14.89601952 71.00234646 C14.0022792 71.0043375 13.10853889 71.00632855 12.18771553 71.00837994 C11.41042801 71.00800022 10.6331405 71.0076205 9.83229882 71.00722927 C8.04010081 70.939365 8.04010081 70.939365 7.06662083 72.13142776 Z " fill="#4D6DF1" transform="translate(104.93337917327881,68.86857223510742)"/>
<path d="M0 0 C1.45978324 -0.00576172 1.45978324 -0.00576172 2.94905704 -0.01163983 C4.01051773 -0.01077335 5.07197842 -0.00990687 6.16560459 -0.00901413 C7.2993099 -0.01198525 8.43301521 -0.01495637 9.60107523 -0.01801753 C13.4085269 -0.0267046 17.21594713 -0.02821281 21.02340794 -0.02970505 C23.7501656 -0.03379595 26.47691996 -0.03933752 29.20367527 -0.04475021 C36.61937032 -0.05832295 44.03505996 -0.06435712 51.45076537 -0.06876087 C56.08539395 -0.07152612 60.72002046 -0.07576409 65.35464764 -0.08026505 C78.19748236 -0.09245828 91.04031543 -0.10275622 103.88315582 -0.10614014 C104.70492189 -0.1063597 105.52668795 -0.10657927 106.37335602 -0.10680549 C107.60889636 -0.10713291 107.60889636 -0.10713291 108.8693971 -0.10746694 C110.53840983 -0.1079104 112.20742256 -0.10835696 113.87643528 -0.10880661 C114.70431695 -0.10902804 115.53219862 -0.10924947 116.38516761 -0.10947761 C129.78375962 -0.11342109 143.18229709 -0.1308611 156.58086806 -0.15416613 C170.35142723 -0.17792383 184.1219591 -0.19034406 197.89253908 -0.19150805 C205.61824422 -0.19242254 213.34387837 -0.1981173 221.06956387 -0.21632767 C227.65191507 -0.23178867 234.23417335 -0.2368141 240.81653928 -0.22858956 C244.17023677 -0.22470358 247.52359663 -0.22716921 250.87729549 -0.23964691 C282.99268916 -0.35208238 282.99268916 -0.35208238 296.44162083 6.94392776 C297.45192356 7.47276566 297.45192356 7.47276566 298.48263645 8.01228714 C303.3762698 10.62760429 307.91562352 13.42484247 312.06662083 17.13142776 C312.70470676 17.67799026 313.3427927 18.22455276 314.00021458 18.78767776 C318.34461169 22.78486186 321.67279437 27.21091207 324.87912083 32.13142776 C325.43877537 32.98510941 325.43877537 32.98510941 326.00973606 33.85603714 C330.27856722 40.64898779 332.47128452 47.45018985 333.2419138 55.41414261 C333.32176455 56.18935949 333.4016153 56.96457638 333.48388577 57.76328468 C334.32744764 66.7067949 334.31826618 75.63334017 334.26193333 84.60799026 C334.25818965 86.39830235 334.25534911 88.18861653 334.25335789 89.97893143 C334.24582782 94.62465237 334.22627473 99.27024239 334.20394993 103.91591263 C334.18325845 108.68304551 334.17430706 113.45020015 334.16427708 118.21736526 C334.14301548 127.52210937 334.10901309 136.82675756 334.06662083 146.13142776 C333.73662083 146.13142776 333.40662083 146.13142776 333.06662083 146.13142776 C333.07661358 147.9939846 333.07661358 147.9939846 333.0868082 149.89416885 C333.14760417 161.59191912 333.19258626 173.28963736 333.22205734 184.98750973 C333.23771802 191.0016138 333.25896392 197.01559041 333.29293919 203.02962112 C333.32551787 208.83270713 333.34347081 214.63567047 333.35125256 220.43884087 C333.35679871 222.65364196 333.36762887 224.86843628 333.383811 227.0831852 C333.4055651 230.18364255 333.40858855 233.283592 333.407197 236.38411331 C333.42337574 237.75975952 333.42337574 237.75975952 333.43988132 239.16319656 C333.4163579 244.00187042 333.16967231 247.16363711 330.06662083 251.13142776 C327.59941918 248.66422612 327.71870573 247.53676005 327.06662083 244.13142776 C326.35868439 241.84748997 325.59287437 239.58832511 324.81662083 237.32674026 C324.22155221 235.58492484 323.66790815 233.82896635 323.12912083 232.06892776 C322.24139303 229.6146215 321.2520781 227.44547535 320.06662083 225.13142776 C317.6612744 220.42843698 316.06662083 216.48447195 316.06662083 211.13142776 C315.07662083 210.80142776 314.08662083 210.47142776 313.06662083 210.13142776 C313.06662083 209.14142776 313.06662083 208.15142776 313.06662083 207.13142776 C312.40662083 207.13142776 311.74662083 207.13142776 311.06662083 207.13142776 C308.77648429 203.69622296 308.88819109 202.14609677 309.06662083 198.13142776 C308.40662083 198.79142776 307.74662083 199.45142776 307.06662083 200.13142776 C306.40662083 198.48142776 305.74662083 196.83142776 305.06662083 195.13142776 C304.40662083 195.13142776 303.74662083 195.13142776 303.06662083 195.13142776 C300.06662083 189.38142776 300.06662083 189.38142776 300.06662083 187.13142776 C299.44787083 186.92517776 298.82912083 186.71892776 298.19162083 186.50642776 C295.22008438 184.58366889 294.93637423 182.4654825 294.06662083 179.13142776 C293.40662083 179.13142776 292.74662083 179.13142776 292.06662083 179.13142776 C288.06662083 173.71966306 288.06662083 173.71966306 288.06662083 171.13142776 C286.74662083 170.47142776 285.42662083 169.81142776 284.06662083 169.13142776 C284.06662083 168.47142776 284.06662083 167.81142776 284.06662083 167.13142776 C282.74662083 166.47142776 281.42662083 165.81142776 280.06662083 165.13142776 C280.06662083 164.47142776 280.06662083 163.81142776 280.06662083 163.13142776 C279.40662083 163.13142776 278.74662083 163.13142776 278.06662083 163.13142776 C276.81304803 161.67992242 275.56509425 160.2223337 274.37130833 158.72127151 C272.98060051 156.96606395 272.98060051 156.96606395 270.81662083 154.94392776 C269.06662083 153.13142776 269.06662083 153.13142776 268.06662083 150.13142776 C267.73662083 150.79142776 267.40662083 151.45142776 267.06662083 152.13142776 C265.74662083 151.80142776 264.42662083 151.47142776 263.06662083 151.13142776 C263.72662083 151.13142776 264.38662083 151.13142776 265.06662083 151.13142776 C265.06662083 124.40142776 265.06662083 97.67142776 265.06662083 70.13142776 C179.59662083 70.13142776 94.12662083 70.13142776 6.06662083 70.13142776 C6.39662083 84.98142776 6.72662083 99.83142776 7.06662083 115.13142776 C7.72662083 115.13142776 8.38662083 115.13142776 9.06662083 115.13142776 C9.28576145 116.24517776 9.50490208 117.35892776 9.73068333 118.50642776 C16.84233714 153.27792455 34.97168924 183.51143969 64.85690403 203.33967972 C94.88998448 222.50933851 130.28331285 228.60834644 165.06662083 221.13142776 C171.76211 219.42754727 178.26444819 217.12755875 184.76974583 214.81502151 C185.91958958 214.42443558 187.06943333 214.03384964 188.25412083 213.63142776 C189.25830051 213.27049026 190.2624802 212.90955276 191.29708958 212.53767776 C194.06662083 212.13142776 194.06662083 212.13142776 196.43527317 213.05354691 C200.22996761 216.05008099 201.82957168 219.6825224 203.93771458 223.97127151 C204.60493282 225.28727089 204.60493282 225.28727089 205.28563023 226.62985611 C206.70482521 229.43653284 208.10464186 232.25237694 209.50412083 235.06892776 C210.44101068 236.92958938 211.37914949 238.78962267 212.31857395 240.64900589 C214.11893589 244.21650661 215.9062669 247.79005706 217.68332005 251.36922073 C219.10944755 254.23654122 220.55833827 257.08640235 222.06320286 259.91316605 C222.61218235 260.95585648 223.16116184 261.99854691 223.72677708 263.07283401 C224.18834202 263.92691849 224.64990696 264.78100296 225.12545872 265.66096878 C226.24865614 268.60925275 226.23710817 271.00260073 226.06662083 274.13142776 C183.22214961 297.82190008 129.88763884 302.62488038 82.89474583 289.56892776 C65.93890745 284.61027479 47.39074273 278.80737487 33.06662083 268.13142776 C32.44162083 266.00642776 32.44162083 266.00642776 32.06662083 264.13142776 C30.08284413 262.84706042 30.08284413 262.84706042 28.06662083 262.13142776 C28.06662083 261.47142776 28.06662083 260.81142776 28.06662083 260.13142776 C26.67443333 259.72924026 26.67443333 259.72924026 25.25412083 259.31892776 C22.02292646 258.11514947 21.38362468 257.44843162 19.06662083 255.13142776 C17.06695254 253.74619802 15.04366076 252.39475263 13.00412083 251.06892776 C7.27495416 247.3397611 7.27495416 247.3397611 5.06662083 245.13142776 C3.73383082 244.46367554 2.40045428 243.79709324 1.06662083 243.13142776 C-3.55821979 239.74634629 -7.36076133 235.67761256 -11.05447292 231.32283401 C-13.10367386 228.93280963 -15.23449234 226.63120922 -17.37087917 224.31892776 C-32.47817809 207.52165981 -44.53342614 186.47082721 -51.93337917 165.13142776 C-52.41800951 163.83416124 -52.90374669 162.53730784 -53.39041042 161.24080276 C-61.83298723 138.12880481 -63.6695722 115.19406871 -63.30837917 90.75642776 C-63.2918065 88.13404518 -63.27747571 85.51164746 -63.26541042 82.88924026 C-63.08662149 57.2543893 -61.52417468 38.32279811 -43.18337917 18.81892776 C-31.86835765 8.07924632 -15.90326956 0.02365423 0 0 Z " fill="#8D5FF6" transform="translate(104.93337917327881,68.86857223510742)"/>
<path d="M0 0 C3.34156689 2.70507796 4.58156362 6.01486922 6 10 C6.05076961 11.99935551 6.0592124 14.00087672 6 16 C-36.84447121 39.69047232 -90.17898199 44.49345262 -137.171875 31.4375 C-154.22754859 26.4496507 -172.49423191 20.56848818 -187 10 C-187 9.67 -187 9.34 -187 9 C-182.6822542 9.50797009 -178.96697886 10.19682779 -175 12 C-175 12.66 -175 13.32 -175 14 C-173.68 14 -172.36 14 -171 14 C-171 14.66 -171 15.32 -171 16 C-170.195625 16.0825 -169.39125 16.165 -168.5625 16.25 C-165.46332699 16.90245748 -163.36738744 17.70328229 -160.5625 19.0625 C-156.42320672 21.00586312 -153.53075453 21.38559613 -149 21 C-149 21.66 -149 22.32 -149 23 C-148.01 23.33 -147.02 23.66 -146 24 C-146 24.66 -146 25.32 -146 26 C-145.00033203 26.16435547 -145.00033203 26.16435547 -143.98046875 26.33203125 C-139.00944401 27.18718655 -134.16457558 28.17619269 -129.3125 29.5625 C-124.85822011 30.82966583 -120.60727147 31.56535175 -116 32 C-116 32.66 -116 33.32 -116 34 C-115.38068604 33.99476318 -114.76137207 33.98952637 -114.12329102 33.98413086 C-111.26970467 33.96311927 -108.41613469 33.95026386 -105.5625 33.9375 C-104.58861328 33.92912109 -103.61472656 33.92074219 -102.61132812 33.91210938 C-97.33769732 33.89447181 -92.25608881 34.14767053 -87.02661133 34.80639648 C-83.99757601 35.09576222 -81.08662768 34.84308917 -78.0625 34.5625 C-69.36737749 33.87325248 -60.71735451 33.91013037 -52 34 C-52 33.34 -52 32.68 -52 32 C-47.48583981 30.90080733 -43.07319938 29.9501543 -38.4375 29.5625 C-33.93365711 29.12233385 -30.14070657 27.75895868 -26 26 C-22.34923727 24.50457978 -18.67128012 23.14948879 -14.9375 21.875 C-13.91527344 21.52179688 -12.89304687 21.16859375 -11.83984375 20.8046875 C-9 20 -9 20 -5 20 C-5 19.34 -5 18.68 -5 18 C-4.01 17.34 -3.02 16.68 -2 16 C-1.96691367 14.08099273 -1.94656607 12.15977937 -2.02734375 10.2421875 C-1.98340134 6.63890986 -0.98676748 3.45368619 0 0 Z " fill="#370CBC" transform="translate(325,327)"/>
<path d="M0 0 C0 0.33 0 0.66 0 1 C-7.24050633 2.25316456 -7.24050633 2.25316456 -11 1 C-11.66 1 -12.32 1 -13 1 C-13.39445313 0.53722656 -13.78890625 0.07445312 -14.1953125 -0.40234375 C-16.83515666 -2.73934864 -19.43938842 -2.92694817 -22.875 -3.5625 C-27.16641075 -4.36884788 -30.98201587 -5.3013955 -35 -7 C-48.74061504 -10.93369496 -62.72000945 -11.30000404 -76.890625 -11.20581055 C-79.7865457 -11.18726597 -82.68215042 -11.18530343 -85.578125 -11.18554688 C-87.42187778 -11.18064062 -89.2656284 -11.17481624 -91.109375 -11.16796875 C-91.9738324 -11.16685593 -92.83828979 -11.1657431 -93.72894287 -11.16459656 C-97.99974772 -11.25231776 -97.99974772 -11.25231776 -102 -10 C-105.04838667 -9.72367142 -108.09654869 -9.55341702 -111.15234375 -9.37890625 C-114.19729591 -9.18632627 -114.19729591 -9.18632627 -117 -7 C-117.495 -7.495 -117.495 -7.495 -118 -8 C-121.29876379 -7.01928644 -122.69303495 -6.51160842 -124.5 -3.5 C-126.30696505 -0.48839158 -127.70123621 0.01928644 -131 1 C-131 1.66 -131 2.32 -131 3 C-133.60582371 3.93065133 -134.64198224 4.14917407 -137.25 3.0625 C-138.11625 2.5365625 -138.11625 2.5365625 -139 2 C-139 1.01 -139 0.02 -139 -1 C-144.13083998 -1.37542732 -147.38441799 -0.18632832 -152 2 C-153.24910993 2.50221946 -154.49909396 3.00227107 -155.75 3.5 C-159.41126148 5.16349474 -159.41126148 5.16349474 -162 8 C-162.57947281 10.96243726 -162.57947281 10.96243726 -162.6875 14.1875 C-162.75324219 15.27417969 -162.81898438 16.36085937 -162.88671875 17.48046875 C-162.92410156 18.31191406 -162.96148437 19.14335937 -163 20 C-165.81600575 16.43513954 -167.28020089 13.55872769 -168 9 C-164.99991796 3.81729697 -160.82287932 2.17806553 -155.5 0.0625 C-154.66267334 -0.27813477 -153.82534668 -0.61876953 -152.96264648 -0.96972656 C-102.51226609 -21.01275212 -50.19977063 -19.50651781 0 0 Z " fill="#25078B" transform="translate(318,187)"/>
<path d="M0 0 C3.59024675 3.59024675 3.50115725 9.09997505 4 14 C3.625 17.6875 3.625 17.6875 3 21 C2.76821584 25.53634722 2.93512951 29.93998686 3.5625 34.4375 C4 38 4 38 3 40 C3.66 40.33 4.32 40.66 5 41 C4.34 41.99 3.68 42.98 3 44 C3.33 44.66 3.66 45.32 4 46 C0.32649856 47.22450048 -3.05157265 47.13818125 -6.87609863 47.12698364 C-7.68797339 47.12854363 -8.49984815 47.13010362 -9.33632517 47.13171089 C-12.06863606 47.13571223 -14.80089177 47.13253396 -17.53320312 47.12939453 C-19.49028048 47.13074946 -21.44735759 47.13252991 -23.4044342 47.13470459 C-28.74429378 47.13928239 -34.08413413 47.13748415 -39.42399406 47.1343255 C-45.05760626 47.13178662 -50.69121684 47.13414527 -56.3248291 47.13571167 C-65.83813773 47.13753607 -75.35143864 47.13512747 -84.86474609 47.13037109 C-95.72410423 47.12500293 -106.58344337 47.12663464 -117.442801 47.1321975 C-126.83976095 47.1368121 -136.23671533 47.1373372 -145.63367605 47.13475883 C-151.21042277 47.13323119 -156.78716077 47.13290015 -162.36390686 47.13629532 C-193.92037414 47.15294097 -225.45194663 46.72818757 -257 46 C-257 45.67 -257 45.34 -257 45 C-171.86 45 -86.72 45 1 45 C0.67 30.15 0.34 15.3 0 0 Z " fill="#66AFF0" transform="translate(369,353)"/>
<path d="M0 0 C0.66 0.33 1.32 0.66 2 1 C2 45.22 2 89.44 2 135 C1.67 135 1.34 135 1 135 C0.87995605 134.34741211 0.75991211 133.69482422 0.63623047 133.02246094 C-3.51518374 110.72276656 -8.99235819 90.40649144 -19 70 C-19.30550781 69.37512695 -19.61101562 68.75025391 -19.92578125 68.10644531 C-24.49771559 58.89472829 -30.18681258 50.45660866 -36 42 C-35.67 41.34 -35.34 40.68 -35 40 C-33.35 40.33 -31.7 40.66 -30 41 C-30.99 41.495 -30.99 41.495 -32 42 C-31.505 42.94875 -31.01 43.8975 -30.5 44.875 C-29 48 -29 48 -29 50 C-28.34 50 -27.68 50 -27 50 C-26.34 51.32 -25.68 52.64 -25 54 C-24.34 53.34 -23.68 52.68 -23 52 C-21.89131683 55.32604951 -21.45822468 58.53058454 -21 62 C-20.34 62 -19.68 62 -19 62 C-18.67 62.99 -18.34 63.98 -18 65 C-17.34 65.33 -16.68 65.66 -16 66 C-15.25390625 68.0390625 -15.25390625 68.0390625 -14.5625 70.625 C-12.48171363 78.45152934 -12.48171363 78.45152934 -8 85 C-8 86.32 -8 87.64 -8 89 C-7.34 89.66 -6.68 90.32 -6 91 C-5.18359375 93.2421875 -5.18359375 93.2421875 -4.4375 95.875 C-4.18871094 96.73867188 -3.93992187 97.60234375 -3.68359375 98.4921875 C-3.09388513 100.65557569 -2.53189164 102.8217771 -2 105 C0.52093125 100.16482687 0.2686909 95.56355084 0.22705078 90.25268555 C0.22734283 89.27659836 0.22763489 88.30051117 0.22793579 87.29484558 C0.22654482 84.07537888 0.21099438 80.85614492 0.1953125 77.63671875 C0.19158155 75.4018415 0.18873496 73.1669626 0.18673706 70.93208313 C0.1791071 65.0548347 0.15946398 59.17768539 0.1373291 53.30047607 C0.11685701 47.30124248 0.10773242 41.30199284 0.09765625 35.30273438 C0.07621757 23.53511274 0.04208922 11.76756462 0 0 Z " fill="#4416EB" transform="translate(437,214)"/>
<path d="M0 0 C1.6950077 2.50566356 2.14087197 4.10670596 1.66796875 7.10546875 C1.18014807 9.08833697 0.59586712 11.04688 0 13 C-0.99 13 -1.98 13 -3 13 C-3 10.69 -3 8.38 -3 6 C-3.66 6 -4.32 6 -5 6 C-5 5.34 -5 4.68 -5 4 C-9.82360189 3.80705592 -13.49646738 4.24252386 -18 6 C-18.33 7.65 -18.66 9.3 -19 11 C-19.99 10.505 -19.99 10.505 -21 10 C-23.09821215 10.39938767 -23.09821215 10.39938767 -25 11 C-25 11.66 -25 12.32 -25 13 C-28.14692933 13.97663324 -30.55637571 13.97784814 -33.8125 13.5625 C-41.10118873 12.43627582 -41.10118873 12.43627582 -48.05078125 14.02734375 C-52.50948856 15.49783133 -56.72976947 15.02821659 -61.375 14.75 C-62.35364014 14.6977124 -63.33228027 14.6454248 -64.34057617 14.59155273 C-79.20294561 13.72461167 -93.26080308 11.90871517 -107 6 C-107 5.34 -107 4.68 -107 4 C-108.32 3.34 -109.64 2.68 -111 2 C-106.1163745 3.04649118 -101.28440465 4.18621536 -96.45727539 5.47070312 C-68.14461239 12.890243 -40.88832945 10.79390803 -13.51953125 0.71875 C-12.46121094 0.3371875 -11.40289062 -0.044375 -10.3125 -0.4375 C-9.40113281 -0.78683594 -8.48976563 -1.13617188 -7.55078125 -1.49609375 C-4.35368365 -2.12767965 -2.83112802 -1.54291579 0 0 Z " fill="#26088D" transform="translate(303,283)"/>
<path d="M0 0 C1.63092416 0.24037781 3.26144177 0.48384089 4.88977814 0.74116516 C8.76701151 1.21673747 12.6465191 1.07111385 16.54589844 1.00585938 C17.47890778 0.99464554 18.41191711 0.9834317 19.37319946 0.97187805 C21.39364383 0.9469462 23.41405905 0.91955591 25.43444061 0.88996887 C28.66004443 0.84301238 31.88566924 0.80311107 35.11138916 0.76501465 C43.14032308 0.66888545 51.16910758 0.56219764 59.19787598 0.45318604 C67.04329444 0.34679658 74.88874749 0.24602016 82.734375 0.15625 C83.8190827 0.14382263 84.9037904 0.13139526 86.02136803 0.11859131 C101.21630677 -0.04553895 116.31290955 0.13781797 131.49139404 0.89379883 C137.55471551 1.15048794 143.6205943 1.06977465 149.6875 1 C156.89201367 0.92223946 163.87209785 0.87500435 171 2 C171 2.33 171 2.66 171 3 C115.23 3 59.46 3 2 3 C2.33 15.21 2.66 27.42 3 40 C3 45.28 3 50.56 3 56 C2.67 56 2.34 56 2 56 C1.92652344 54.89591797 1.92652344 54.89591797 1.8515625 53.76953125 C1.77679688 52.79371094 1.70203125 51.81789062 1.625 50.8125 C1.55539063 49.84957031 1.48578125 48.88664062 1.4140625 47.89453125 C1.15447527 45.05236077 1.15447527 45.05236077 -0.01147461 42.88061523 C-1.38125173 38.8890123 -1.26700325 35.20590476 -1.23046875 31.015625 C-1.23001053 30.15942566 -1.22955231 29.30322632 -1.2290802 28.42108154 C-1.22606845 26.61908576 -1.2182145 24.81709233 -1.20581055 23.01513672 C-1.18747136 20.24567542 -1.18530157 17.47654714 -1.18554688 14.70703125 C-1.18063445 12.95572625 -1.17480734 11.20442353 -1.16796875 9.453125 C-1.16685593 8.62089417 -1.1657431 7.78866333 -1.16459656 6.93121338 C-1.11607452 1.11607452 -1.11607452 1.11607452 0 0 Z " fill="#CBA6EE" transform="translate(109,136)"/>
<path d="M0 0 C0 0.66 0 1.32 0 2 C-3.77372197 4.51581465 -6.7364809 4.27293121 -11.10539246 4.24050903 C-12.35880439 4.24307231 -12.35880439 4.24307231 -13.63753778 4.24568737 C-16.447491 4.24899097 -19.25720731 4.23796427 -22.06713867 4.22705078 C-24.07740778 4.22648686 -26.0876773 4.22680286 -28.09794617 4.22793579 C-33.5645722 4.22851103 -39.03111096 4.21672903 -44.49771667 4.20278788 C-50.20723898 4.19030902 -55.91676315 4.18911227 -61.626297 4.18673706 C-72.44225286 4.18051391 -83.25816842 4.16409181 -94.07410651 4.14403808 C-106.3859072 4.12170503 -118.69770977 4.11069218 -131.00952566 4.10064721 C-156.33970614 4.0797263 -181.66985081 4.04453413 -207 4 C-207 3.67 -207 3.34 -207 3 C-185.56318215 1.98384165 -164.15159595 1.80789444 -142.69521761 1.72960854 C-137.96243273 1.7111302 -133.22967798 1.68682916 -128.49691772 1.66296387 C-114.49870577 1.59343702 -100.50045458 1.53350608 -86.50219727 1.47393799 C-75.55011515 1.42717432 -64.5980528 1.37808075 -53.64601171 1.32245111 C-48.03171562 1.29419808 -42.41742526 1.27057476 -36.80309415 1.25052643 C-33.32626705 1.23714101 -29.8494686 1.21973349 -26.37266541 1.20121574 C-24.76219277 1.19346618 -23.15171105 1.18739376 -21.54122543 1.18312263 C-19.34389212 1.17706626 -17.14666953 1.16501451 -14.94937134 1.15148926 C-13.72066126 1.14633553 -12.49195118 1.14118179 -11.22600746 1.13587189 C-7.39886816 0.97468173 -3.82022264 0 0 0 Z " fill="#67AFDF" transform="translate(387,463)"/>
<path d="M0 0 C1.45978324 -0.00576172 1.45978324 -0.00576172 2.94905704 -0.01163983 C4.01051773 -0.01077335 5.07197842 -0.00990687 6.16560459 -0.00901413 C7.2993099 -0.01198525 8.43301521 -0.01495637 9.60107523 -0.01801753 C13.4085269 -0.0267046 17.21594713 -0.02821281 21.02340794 -0.02970505 C23.7501656 -0.03379595 26.47691996 -0.03933752 29.20367527 -0.04475021 C36.61937032 -0.05832295 44.03505996 -0.06435712 51.45076537 -0.06876087 C56.08539395 -0.07152612 60.72002046 -0.07576409 65.35464764 -0.08026505 C78.19748236 -0.09245828 91.04031543 -0.10275622 103.88315582 -0.10614014 C104.70492189 -0.1063597 105.52668795 -0.10657927 106.37335602 -0.10680549 C107.60889636 -0.10713291 107.60889636 -0.10713291 108.8693971 -0.10746694 C110.53840983 -0.1079104 112.20742256 -0.10835696 113.87643528 -0.10880661 C114.70431695 -0.10902804 115.53219862 -0.10924947 116.38516761 -0.10947761 C129.78375962 -0.11342109 143.18229709 -0.1308611 156.58086806 -0.15416613 C170.35142723 -0.17792383 184.1219591 -0.19034406 197.89253908 -0.19150805 C205.61824422 -0.19242254 213.34387837 -0.1981173 221.06956387 -0.21632767 C227.65191507 -0.23178867 234.23417335 -0.2368141 240.81653928 -0.22858956 C244.17023677 -0.22470358 247.52359663 -0.22716921 250.87729549 -0.23964691 C276.72548403 -0.330141 276.72548403 -0.330141 288.06662083 3.13142776 C288.06662083 3.46142776 288.06662083 3.79142776 288.06662083 4.13142776 C283.49734152 4.3038534 279.4727269 4.08394297 274.99513435 3.13990879 C269.12664007 2.03915057 263.48098586 1.84855938 257.5229044 1.87073135 C256.41391869 1.86690581 255.30493299 1.86308026 254.16234165 1.85913879 C250.47470508 1.84888299 246.78722638 1.85278676 243.09957981 1.85676956 C240.4442605 1.85241907 237.78895247 1.84729869 235.13363743 1.84128189 C228.68744865 1.82857767 222.2413016 1.82673572 215.79510241 1.82908215 C210.55374108 1.83086975 205.31239235 1.82910625 200.07103252 1.82485771 C199.32328725 1.82426252 198.57554197 1.82366733 197.80513774 1.82305411 C196.28582493 1.82184229 194.76651212 1.82062815 193.2471993 1.81941173 C179.02255259 1.80855335 164.79792963 1.81069101 150.57328159 1.81679658 C137.57328871 1.82196809 124.5733707 1.81070108 111.57339262 1.79169836 C98.20494231 1.77230764 84.8365274 1.76406588 71.46806294 1.76782161 C63.9706164 1.76973128 56.47323363 1.7672686 48.97579861 1.75310707 C42.59549054 1.74117679 36.21528554 1.73980704 29.83497601 1.75189724 C26.58303038 1.75777352 23.33131139 1.75728303 20.07937145 1.74689484 C16.54719174 1.7364263 13.01551541 1.7445295 9.48335361 1.75720596 C8.46553836 1.74983168 7.4477231 1.74245739 6.39906496 1.73485965 C-1.56410668 1.79481714 -8.26104197 3.45632658 -15.49587917 6.75642776 C-19.65236292 8.41902126 -23.4970675 8.83969752 -27.93337917 9.13142776 C-25.24481039 5.67469647 -21.57533092 4.76269453 -17.55837917 3.50642776 C-16.89837917 3.28986526 -16.23837917 3.07330276 -15.55837917 2.85017776 C-10.31449706 1.15792895 -5.51366179 0.00820092 0 0 Z " fill="#725996" transform="translate(104.93337917327881,68.86857223510742)"/>
<path d="M0 0 C2.11731843 0.01068617 4.23378207 0.00007425 6.35107422 -0.01269531 C13.43808059 -0.01808735 20.17987395 0.3197822 27.12109375 1.9296875 C29.43303557 2.45532997 29.43303557 2.45532997 32.25341797 1.26074219 C32.25341797 1.92074219 32.25341797 2.58074219 32.25341797 3.26074219 C37.20341797 3.75574219 37.20341797 3.75574219 42.25341797 4.26074219 C42.74841797 5.74574219 42.74841797 5.74574219 43.25341797 7.26074219 C44.90341797 7.26074219 46.55341797 7.26074219 48.25341797 7.26074219 C48.25341797 7.92074219 48.25341797 8.58074219 48.25341797 9.26074219 C49.44966797 9.34324219 50.64591797 9.42574219 51.87841797 9.51074219 C56.16234443 10.04337958 58.89538279 11.47603009 62.25341797 14.26074219 C62.74841797 15.74574219 62.74841797 15.74574219 63.25341797 17.26074219 C58.85046684 15.85554502 54.63467423 14.1832421 50.37841797 12.38574219 C20.83855805 0.26178209 -11.96819875 1.48709101 -41.68017578 12.20996094 C-44.40410695 13.14338448 -46.88229727 13.96269492 -49.74658203 14.26074219 C-51.74658203 12.26074219 -51.74658203 12.26074219 -51.87158203 9.63574219 C-51.83033203 8.85199219 -51.78908203 8.06824219 -51.74658203 7.26074219 C-51.08658203 8.58074219 -50.42658203 9.90074219 -49.74658203 11.26074219 C-45.78658203 10.27074219 -41.82658203 9.28074219 -37.74658203 8.26074219 C-38.40658203 6.61074219 -39.06658203 4.96074219 -39.74658203 3.26074219 C-35.3158128 1.1684345 -35.3158128 1.1684345 -32.43408203 1.63574219 C-31.87720703 1.84199219 -31.32033203 2.04824219 -30.74658203 2.26074219 C-31.07658203 2.59074219 -31.40658203 2.92074219 -31.74658203 3.26074219 C-30.44720703 3.13699219 -29.14783203 3.01324219 -27.80908203 2.88574219 C-27.07818359 2.81613281 -26.34728516 2.74652344 -25.59423828 2.67480469 C-22.55694523 2.28979006 -22.55694523 2.28979006 -18.92236328 1.23730469 C-12.68150117 -0.17998664 -6.3648887 -0.03815705 0 0 Z M-36.74658203 3.26074219 C-36.74658203 4.25074219 -36.74658203 5.24074219 -36.74658203 6.26074219 C-36.08658203 5.93074219 -35.42658203 5.60074219 -34.74658203 5.26074219 C-35.40658203 4.60074219 -36.06658203 3.94074219 -36.74658203 3.26074219 Z " fill="#3C12CE" transform="translate(235.74658203125,239.7392578125)"/>
<path d="M0 0 C0.33 0 0.66 0 1 0 C1.11480713 0.67240723 1.22961426 1.34481445 1.34790039 2.03759766 C4.86454798 22.27850723 9.37249602 41.65363555 18.6171875 60.1015625 C19.74107885 62.45728958 20.51564958 64.45405547 21 67 C20.34 66.67 19.68 66.34 19 66 C19 65.34 19 64.68 19 64 C18.34 64 17.68 64 17 64 C17 62.68 17 61.36 17 60 C16.34 60 15.68 60 15 60 C15 58.35 15 56.7 15 55 C14.34 55 13.68 55 13 55 C9.61554795 47.18695644 7.22442976 39.21145881 5 31 C3.39369804 32.12338433 3.39369804 32.12338433 2 34 C1.57024457 36.82146632 1.57024457 36.82146632 1.67529297 40.06933594 C1.67874725 41.32204285 1.68220154 42.57474976 1.6857605 43.86541748 C1.70442813 45.23840525 1.72324098 46.61139105 1.7421875 47.984375 C1.75033456 49.40146125 1.75699385 50.81855677 1.76223755 52.23565674 C1.77937848 55.97834583 1.81358985 59.72067471 1.85229492 63.4631958 C1.91133209 69.4092856 1.94588025 75.35554099 1.97806168 81.30182648 C1.99175562 83.35705782 2.01341004 85.41207796 2.03634644 87.46722412 C2.1036527 96.36818192 1.71050683 105.13237581 1 114 C0.67 114 0.34 114 0 114 C0 76.38 0 38.76 0 0 Z " fill="#4315D8" transform="translate(42,190)"/>
<path d="M0 0 C4.57922091 3.50875368 7.65896904 6.92518813 10.6875 11.8125 C11.06455078 12.39064453 11.44160156 12.96878906 11.83007812 13.56445312 C16.16434877 20.41002893 18.39695844 27.23913336 19.17529297 35.28271484 C19.25514372 36.05793173 19.33499447 36.83314861 19.41726494 37.63185692 C20.26082681 46.57536714 20.25164535 55.5019124 20.1953125 64.4765625 C20.19156882 66.26687459 20.18872829 68.05718877 20.18673706 69.84750366 C20.179207 74.4932246 20.1596539 79.13881462 20.1373291 83.78448486 C20.11663762 88.55161774 20.10768623 93.31877238 20.09765625 98.0859375 C20.07639465 107.3906816 20.04239227 116.69532979 20 126 C19.67 126 19.34 126 19 126 C17.90173724 121.55198774 17.83507732 117.18668735 17.81054688 112.63305664 C17.80225357 111.8031572 17.79396027 110.97325775 17.78541565 110.11820984 C17.76806037 108.32145623 17.75288135 106.52468056 17.73963928 104.72789192 C17.71854102 101.88196676 17.69152361 99.0361518 17.66296387 96.19029236 C17.60337594 90.14773762 17.55117116 84.10513111 17.5 78.0625 C17.44068263 71.06235629 17.37832376 64.06226716 17.30812073 57.06222343 C17.2816289 54.26269681 17.26076469 51.46316438 17.2401123 48.66358948 C17.2235017 46.9411696 17.20662919 45.21875222 17.18945312 43.49633789 C17.18526871 42.72160126 17.18108429 41.94686462 17.17677307 41.14865112 C17.12913146 37.01101928 16.97651916 33.03164092 16 29 C15.34 28.67 14.68 28.34 14 28 C13.1450035 24.92022202 12.52480078 21.81732035 11.87890625 18.6875 C11.58886719 17.800625 11.29882812 16.91375 11 16 C10.01 15.67 9.02 15.34 8 15 C6.71875 13.22265625 6.71875 13.22265625 5.5 11.0625 C3.78461026 8.03307774 3.00765117 7.00510078 0 5 C-0.1875 2.375 -0.1875 2.375 0 0 Z " fill="#744DED" transform="translate(419,89)"/>
<path d="M0 0 C0 0.66 0 1.32 0 2 C-2.98109385 3.49054693 -5.6712479 3.12259406 -8.99807739 3.12025452 C-9.72665856 3.12110894 -10.45523973 3.12196337 -11.20589912 3.12284368 C-13.65958887 3.12449743 -16.11321102 3.11897883 -18.56689453 3.11352539 C-20.3208618 3.11324347 -22.07482919 3.11340135 -23.82879639 3.1139679 C-28.60126329 3.11425568 -33.37370524 3.10836199 -38.14616632 3.10139394 C-43.12965933 3.09515726 -48.11315286 3.09455635 -53.09664917 3.09336853 C-62.53848499 3.09025614 -71.98030927 3.082044 -81.42214 3.07201904 C-92.16925967 3.06085504 -102.91637987 3.05534673 -113.66350389 3.05032361 C-135.7756757 3.03986131 -157.88783713 3.02226365 -180 3 C-180 2.67 -180 2.34 -180 2 C-179.11816701 1.99576806 -178.23633402 1.99153612 -177.32777882 1.98717594 C-155.87882743 1.88390757 -134.42990908 1.77527548 -112.98101521 1.66066074 C-102.60853003 1.60536371 -92.23604142 1.55188747 -81.86352539 1.50268555 C-72.82369932 1.45980062 -63.78389822 1.41351173 -54.74411076 1.36312145 C-49.95686487 1.33655526 -45.16962382 1.31170303 -40.38234901 1.29092598 C-35.87706497 1.27131903 -31.3718283 1.24716311 -26.86658669 1.21950912 C-25.2125993 1.21016018 -23.55860153 1.20247719 -21.90459824 1.19658089 C-19.64669957 1.18828299 -17.38891474 1.17399614 -15.13105774 1.15821838 C-13.23539047 1.14853956 -13.23539047 1.14853956 -11.30142689 1.1386652 C-7.44906409 0.97685981 -3.84363067 0 0 0 Z " fill="#5FBBF8" transform="translate(387,463)"/>
<path d="M0 0 C4.3177458 0.50797009 8.03302114 1.19682779 12 3 C12 3.66 12 4.32 12 5 C13.32 5 14.64 5 16 5 C16 5.66 16 6.32 16 7 C16.804375 7.0825 17.60875 7.165 18.4375 7.25 C21.53667301 7.90245748 23.63261256 8.70328229 26.4375 10.0625 C30.57679328 12.00586312 33.46924547 12.38559613 38 12 C38 12.66 38 13.32 38 14 C38.99 14.33 39.98 14.66 41 15 C41 15.66 41 16.32 41 17 C41.70125 17.12117188 42.4025 17.24234375 43.125 17.3671875 C48.81970105 18.37304502 54.40894019 19.52311628 60 21 C60 21.33 60 21.66 60 22 C40.67228532 24.04646391 15.30701701 12.27885464 0 1 C0 0.67 0 0.34 0 0 Z " fill="#4B2AC1" transform="translate(138,336)"/>
<path d="M0 0 C1.60605818 2.83964676 2.24766266 4.8556976 2.22705078 8.11209106 C2.22690979 8.92245819 2.2267688 9.73282532 2.22662354 10.56774902 C2.21629089 11.44789673 2.20595825 12.32804443 2.1953125 13.23486328 C2.19239197 14.16857758 2.18947144 15.10229187 2.1864624 16.06430054 C2.17885619 18.08975465 2.16662907 20.11519548 2.15032959 22.1405983 C2.12482432 25.34236562 2.11177761 28.54396749 2.10205078 31.74581909 C2.07918674 38.53895365 2.0406841 45.33195186 2 52.125 C1.95287616 60.00216561 1.91208082 67.87925388 1.88812256 75.75652695 C1.87511424 78.91755233 1.85010143 82.07834161 1.82470703 85.23928833 C1.81744529 87.16749869 1.81074142 89.09571125 1.8046875 91.02392578 C1.79435486 91.90812195 1.78402222 92.79231812 1.77337646 93.70330811 C1.77300849 95.80356433 1.87661329 97.90337126 2 100 C2.66 100.66 3.32 101.32 4 102 C3.9765625 105.0390625 3.9765625 105.0390625 3.625 108.625 C3.51414063 109.81351562 3.40328125 111.00203125 3.2890625 112.2265625 C3.19367187 113.14179688 3.09828125 114.05703125 3 115 C3.66 115.33 4.32 115.66 5 116 C5 117.65 5 119.3 5 121 C5.66 121 6.32 121 7 121 C7.66 123.64 8.32 126.28 9 129 C2.07604276 122.6481076 0.71000806 112.9627001 0 104 C-0.34269787 95.99949831 -0.23350583 87.98608634 -0.1953125 79.98046875 C-0.19157605 77.66734439 -0.18873207 75.35421844 -0.18673706 73.04109192 C-0.17915035 66.99298631 -0.15954514 60.94497883 -0.1373291 54.89691162 C-0.11676306 48.7092827 -0.10771247 42.52163772 -0.09765625 36.33398438 C-0.07629402 24.22261346 -0.04221888 12.11131493 0 0 Z " fill="#524BE6" transform="translate(42,304)"/>
<path d="M0 0 C0.66 0.33 1.32 0.66 2 1 C2 1.66 2 2.32 2 3 C2.81210938 3.38671875 2.81210938 3.38671875 3.640625 3.78125 C6.43492441 5.22466294 9.08219346 6.83438534 11.75 8.5 C12.73484375 9.1084375 13.7196875 9.716875 14.734375 10.34375 C15.48203125 10.8903125 16.2296875 11.436875 17 12 C17 12.66 17 13.32 17 14 C17.886875 14.20625 18.77375 14.4125 19.6875 14.625 C23.92278682 16.38304358 25.30493333 18.35373333 28 22 C27.34 22.33 26.68 22.66 26 23 C19.0334348 19.43205428 7.59092529 13.18185058 4 6 C3.01 5.67 2.02 5.34 1 5 C1.33 31.4 1.66 57.8 2 85 C1.34 85 0.68 85 0 85 C-0.15357541 74.06510588 -0.30175717 63.13015346 -0.4429636 52.1950922 C-0.5086957 47.11805774 -0.57631849 42.04106284 -0.64819336 36.96411133 C-0.71742765 32.06884683 -0.7817855 27.17354073 -0.84269524 22.27816582 C-0.86685756 20.40614919 -0.89280707 18.53415479 -0.92053413 16.66218758 C-0.95893146 14.04964808 -0.99109677 11.4371033 -1.02172852 8.82446289 C-1.03467453 8.04259613 -1.04762054 7.26072937 -1.06095886 6.45516968 C-1.07903478 4.6367561 -1.04520691 2.81794142 -1 1 C-0.67 0.67 -0.34 0.34 0 0 Z " fill="#545CD2" transform="translate(110,313)"/>
<path d="M0 0 C5.73929024 -0.10080494 11.47803716 -0.17235526 17.21801758 -0.21972656 C19.16016643 -0.23952649 21.10225838 -0.26657369 23.04418945 -0.30175781 C36.40822614 -0.53736956 48.75919767 0.59275573 61.80809021 3.51829529 C64.96344169 4.21173061 68.13554943 4.78914056 71.3125 5.375 C79.17649715 7.06892959 86.55406452 10.01195576 94 13 C94 13.33 94 13.66 94 14 C86.75949367 15.25316456 86.75949367 15.25316456 83 14 C82.34 14 81.68 14 81 14 C80.40832031 13.30583984 80.40832031 13.30583984 79.8046875 12.59765625 C77.16484334 10.26065136 74.56061158 10.07305183 71.125 9.4375 C66.83358925 8.63115212 63.01798413 7.6986045 59 6 C45.3479836 2.09166926 31.21055247 1.64582176 17.125 1.375 C15.45440943 1.33670008 13.78383606 1.29764203 12.11328125 1.2578125 C8.07566513 1.1631629 4.03795769 1.07867397 0 1 C0 0.67 0 0.34 0 0 Z " fill="#3C1EC3" transform="translate(224,174)"/>
<path d="M0 0 C-0.33 0.66 -0.66 1.32 -1 2 C0.29091553 1.83701416 1.58183105 1.67402832 2.91186523 1.50610352 C7.76179617 0.9692739 12.53496508 0.87114929 17.41015625 0.90234375 C18.26306747 0.9037587 19.1159787 0.90517365 19.99473572 0.90663147 C22.68402816 0.91217061 25.37323328 0.9247112 28.0625 0.9375 C29.90038941 0.94252288 31.73828015 0.9470844 33.57617188 0.95117188 C38.05081422 0.96212 42.52539238 0.97934161 47 1 C47 1.33 47 1.66 47 2 C46.31711914 2.0093457 45.63423828 2.01869141 44.93066406 2.02832031 C25.38760449 2.36222183 7.49482097 4.29851713 -10.93359375 10.94921875 C-13.65752492 11.8826423 -16.13571524 12.70195273 -19 13 C-21 11 -21 11 -21.125 8.375 C-21.08375 7.59125 -21.0425 6.8075 -21 6 C-20.34 7.32 -19.68 8.64 -19 10 C-15.04 9.01 -11.08 8.02 -7 7 C-7.66 5.35 -8.32 3.7 -9 2 C-5.5647952 -0.29013653 -4.014669 -0.17842973 0 0 Z M-6 2 C-6 2.99 -6 3.98 -6 5 C-5.34 4.67 -4.68 4.34 -4 4 C-4.66 3.34 -5.32 2.68 -6 2 Z " fill="#1F0875" transform="translate(205,241)"/>
<path d="M0 0 C2.37167943 3.55751914 2.24817318 5.06598445 2.24291992 9.28466797 C2.24599655 10.58387177 2.24907318 11.88307556 2.25224304 13.22164917 C2.24533763 14.6451637 2.2380701 16.06867651 2.23046875 17.4921875 C2.22927535 18.95891275 2.22882413 20.42563878 2.2290802 21.8923645 C2.2275145 24.97418984 2.21922726 28.05589919 2.20581055 31.13769531 C2.18897017 35.05202356 2.18499208 38.9662226 2.18575573 42.88058281 C2.18548091 45.91613966 2.17994792 48.95166928 2.17275429 51.98721695 C2.16960983 53.42783528 2.1676103 54.86845665 2.16686058 56.30907822 C2.15713148 65.24655446 1.82837667 74.09695507 1 83 C-0.32 82.67 -1.64 82.34 -3 82 C-2.34 82 -1.68 82 -1 82 C-1.00222061 80.98744644 -1.00444122 79.97489288 -1.00672913 78.93165588 C-1.02696054 69.4106235 -1.04197214 59.88959545 -1.05181217 50.36854649 C-1.057041 45.47314626 -1.06413864 40.57776332 -1.07543945 35.68237305 C-1.08626834 30.96212022 -1.09227684 26.24188408 -1.09487724 21.5216198 C-1.09673149 19.71661046 -1.10035209 17.91160208 -1.10573006 16.10659981 C-1.11294052 13.58740356 -1.11399094 11.0682771 -1.11352539 8.54907227 C-1.11712067 7.79525772 -1.12071594 7.04144318 -1.12442017 6.26478577 C-1.11405216 1.11405216 -1.11405216 1.11405216 0 0 Z " fill="#6D4BDE" transform="translate(371,138)"/>
<path d="M0 0 C5.39795989 1.15058556 10.70987333 2.42421759 16 4 C16 4.99 16 5.98 16 7 C17.11375 6.95875 18.2275 6.9175 19.375 6.875 C22.57579416 6.86420533 25.36203468 7.2462312 28.46875 7.99609375 C34.69646736 9.28822748 40.7862354 9.25918014 47.125 9.1875 C48.30682861 9.18105469 49.48865723 9.17460937 50.70629883 9.16796875 C59.49910294 9.09102345 68.23860451 8.7513601 77 8 C77 8.66 77 9.32 77 10 C75.91332031 10.07347656 75.91332031 10.07347656 74.8046875 10.1484375 C73.83789062 10.22320312 72.87109375 10.29796875 71.875 10.375 C70.92367187 10.44460938 69.97234375 10.51421875 68.9921875 10.5859375 C65.98844412 10.88422813 65.98844412 10.88422813 63.28515625 12.0546875 C58.63443138 13.39294602 54.35904815 13.03984027 49.5625 12.75 C48.58837158 12.6977124 47.61424316 12.6454248 46.6105957 12.59155273 C31.7655353 11.72162461 17.72302364 9.90175964 4 4 C4 3.34 4 2.68 4 2 C2.68 1.34 1.36 0.68 0 0 Z " fill="#3E0ADB" transform="translate(192,285)"/>
<path d="M0 0 C0 0.33 0 0.66 0 1 C-4.25684583 0.53350472 -8.40644327 -0.04377241 -12.59057617 -0.95947266 C-24.67275554 -3.59060126 -36.16202484 -4.57893859 -48.51635742 -4.41162109 C-51.3569642 -4.37441765 -54.19628077 -4.37060851 -57.03710938 -4.37109375 C-58.87501117 -4.3612817 -60.71290429 -4.34963313 -62.55078125 -4.3359375 C-63.38418533 -4.33371185 -64.21758942 -4.33148621 -65.07624817 -4.32919312 C-70.3635102 -4.24406587 -74.90587832 -3.41853764 -80 -2 C-81.99406734 -1.74096674 -83.99481027 -1.52538923 -86 -1.375 C-86.94875 -1.30023438 -87.8975 -1.22546875 -88.875 -1.1484375 C-89.926875 -1.07496094 -89.926875 -1.07496094 -91 -1 C-91.33 -1.66 -91.66 -2.32 -92 -3 C-90.79601562 -3.20496094 -89.59203125 -3.40992188 -88.3515625 -3.62109375 C-86.77601308 -3.89306359 -85.20049379 -4.16520807 -83.625 -4.4375 C-82.8309375 -4.57220703 -82.036875 -4.70691406 -81.21875 -4.84570312 C-76.98605017 -5.51417589 -76.98605017 -5.51417589 -73 -7 C-48.92935263 -10.40622368 -23.22670359 -6.47193862 0 0 Z " fill="#2A0994" transform="translate(296,179)"/>
<path d="M0 0 C12.65934519 14.90277346 21.62246986 44.72367563 21.125 64.125 C21.10695313 65.05570312 21.08890625 65.98640625 21.0703125 66.9453125 C21.04710937 67.62335938 21.02390625 68.30140625 21 69 C20.67 69 20.34 69 20 69 C19.81824219 67.91203125 19.63648438 66.8240625 19.44921875 65.703125 C17.97476119 57.03141588 16.30850561 48.49726533 14 40 C12.68 40 11.36 40 10 40 C10.04640625 39.27296875 10.0928125 38.5459375 10.140625 37.796875 C10.39696217 30.6560538 9.40030696 25.07997884 6.875 18.3984375 C6 16 6 16 6 14 C5.01 13.67 4.02 13.34 3 13 C2.05078125 11.07421875 2.05078125 11.07421875 1.3125 8.6875 C0.93544922 7.51767578 0.93544922 7.51767578 0.55078125 6.32421875 C0 4 0 4 0 0 Z " fill="#5F71FD" transform="translate(416,280)"/>
<path d="M0 0 C3.34156689 2.70507796 4.58156362 6.01486922 6 10 C6.05076961 11.99935551 6.0592124 14.00087672 6 16 C3.43873936 17.294174 0.87606642 18.58540784 -1.6875 19.875 C-2.40873047 20.23980469 -3.12996094 20.60460937 -3.87304688 20.98046875 C-11.98389285 25.05440965 -11.98389285 25.05440965 -15 26 C-15.99 25.67 -16.98 25.34 -18 25 C-11.25 22 -11.25 22 -9 22 C-9 21.34 -9 20.68 -9 20 C-7.68 20 -6.36 20 -5 20 C-5 19.34 -5 18.68 -5 18 C-4.01 17.34 -3.02 16.68 -2 16 C-1.96691367 14.08099273 -1.94656607 12.15977937 -2.02734375 10.2421875 C-1.98340134 6.63890986 -0.98676748 3.45368619 0 0 Z " fill="#0D0532" transform="translate(325,327)"/>
<path d="M0 0 C-2.97 0.99 -5.94 1.98 -9 3 C-9 3.66 -9 4.32 -9 5 C-25.9888538 10.34973685 -42.14122856 14.31944235 -60 15 C-60 14.67 -60 14.34 -60 14 C-51.585 13.01 -51.585 13.01 -43 12 C-43 11.34 -43 10.68 -43 10 C-38.48583981 8.90080733 -34.07319938 7.9501543 -29.4375 7.5625 C-24.93558903 7.12252266 -21.13857228 5.76713374 -17 4 C-15.33333333 3.33333333 -13.66666667 2.66666667 -12 2 C-11.35933594 1.72800781 -10.71867187 1.45601563 -10.05859375 1.17578125 C-9.35863281 0.89089844 -8.65867187 0.60601562 -7.9375 0.3125 C-7.28652344 0.04050781 -6.63554687 -0.23148437 -5.96484375 -0.51171875 C-4 -1 -4 -1 0 0 Z " fill="#280990" transform="translate(316,349)"/>
<path d="M0 0 C0.33 0 0.66 0 1 0 C2.05198452 6.91959154 2.17740621 13.72271565 2.203125 20.71484375 C2.20882507 21.92515762 2.21452515 23.1354715 2.22039795 24.38246155 C2.22981132 26.9332696 2.2363673 29.48408962 2.24023438 32.03491211 C2.24995941 35.9212773 2.28102648 39.80711759 2.3125 43.69335938 C2.31902923 46.17968438 2.32428002 48.66601314 2.328125 51.15234375 C2.3404718 52.30572739 2.3528186 53.45911102 2.36553955 54.64744568 C2.34695903 61.42475171 1.52257718 66.69647092 -1 73 C-1.33 73 -1.66 73 -2 73 C-1.85870713 70.58299013 -1.71213513 68.16649571 -1.5625 65.75 C-1.50352539 64.72712891 -1.50352539 64.72712891 -1.44335938 63.68359375 C-1.26993455 60.93547735 -1.07985797 58.31525631 -0.40234375 55.640625 C0.21467308 53.88986432 0.21467308 53.88986432 -1 52 C-0.90792045 50.56208426 -0.75041015 49.12828239 -0.56640625 47.69921875 C0.37612811 38.43272929 0.10487604 29.1152411 0.0625 19.8125 C0.05747525 17.88737096 0.05291406 15.96224064 0.04882812 14.03710938 C0.03789915 9.35804116 0.0206882 4.67903483 0 0 Z " fill="#62A4F4" transform="translate(437,350)"/>
<path d="M0 0 C10.50666517 3.04930282 19.6139187 10.6140939 28.375 17 C29.36584595 17.72110962 29.36584595 17.72110962 30.37670898 18.45678711 C31.93812632 19.61086011 33.47222554 20.80174552 35 22 C35 22.33 35 22.66 35 23 C32.69 23 30.38 23 28 23 C28 22.34 28 21.68 28 21 C27.38125 20.87625 26.7625 20.7525 26.125 20.625 C24 20 24 20 22 18 C21.34 17.67 20.68 17.34 20 17 C20 16.01 20 15.02 20 14 C19.43539063 13.88269531 18.87078125 13.76539063 18.2890625 13.64453125 C15.763117 12.93330086 13.68287522 11.93406137 11.375 10.6875 C10.59898437 10.27886719 9.82296875 9.87023437 9.0234375 9.44921875 C6.75340554 7.82338505 6.1424382 6.49354091 5 4 C3.67405895 3.63837971 2.34061543 3.30271961 1 3 C0.67 2.01 0.34 1.02 0 0 Z " fill="#4544C6" transform="translate(332,195)"/>
<path d="M0 0 C2.00720923 0.28674418 4.0085944 0.61866701 6 1 C5.01 1.66 4.02 2.32 3 3 C2.56168713 5.33972518 2.56168713 5.33972518 2.65942383 8.09228516 C2.65965042 9.15323395 2.65987701 10.21418274 2.66011047 11.30728149 C2.67559433 12.45626923 2.69107819 13.60525696 2.70703125 14.7890625 C2.71127609 15.96262299 2.71552094 17.13618347 2.71989441 18.3453064 C2.73673024 22.10543454 2.77439223 25.86503297 2.8125 29.625 C2.82754046 32.16926311 2.84122997 34.7135346 2.85351562 37.2578125 C2.88664983 43.50539005 2.93689794 49.75265719 3 56 C2.67 56 2.34 56 2 56 C1.92652344 54.89591797 1.92652344 54.89591797 1.8515625 53.76953125 C1.77679688 52.79371094 1.70203125 51.81789062 1.625 50.8125 C1.55539063 49.84957031 1.48578125 48.88664062 1.4140625 47.89453125 C1.15447527 45.05236077 1.15447527 45.05236077 -0.01147461 42.88061523 C-1.38125173 38.8890123 -1.26700325 35.20590476 -1.23046875 31.015625 C-1.23001053 30.15942566 -1.22955231 29.30322632 -1.2290802 28.42108154 C-1.22606845 26.61908576 -1.2182145 24.81709233 -1.20581055 23.01513672 C-1.18747136 20.24567542 -1.18530157 17.47654714 -1.18554688 14.70703125 C-1.18063445 12.95572625 -1.17480734 11.20442353 -1.16796875 9.453125 C-1.16685593 8.62089417 -1.1657431 7.78866333 -1.16459656 6.93121338 C-1.11607452 1.11607452 -1.11607452 1.11607452 0 0 Z " fill="#BA94ED" transform="translate(109,136)"/>
<path d="M0 0 C0.66 0 1.32 0 2 0 C2 2.64 2 5.28 2 8 C2.99 8 3.98 8 5 8 C5.2630896 8.8818396 5.2630896 8.8818396 5.53149414 9.78149414 C8.88855263 20.93362721 12.39272497 31.67606551 17.6171875 42.1015625 C18.74107885 44.45728958 19.51564958 46.45405547 20 49 C19.34 48.67 18.68 48.34 18 48 C18 47.34 18 46.68 18 46 C17.34 46 16.68 46 16 46 C16 44.68 16 43.36 16 42 C15.34 42 14.68 42 14 42 C14 40.35 14 38.7 14 37 C13.34 37 12.68 37 12 37 C8.61554795 29.18695644 6.22442976 21.21145881 4 13 C2.68 13.99 1.36 14.98 0 16 C0 10.72 0 5.44 0 0 Z " fill="#490FE9" transform="translate(43,208)"/>
<path d="M0 0 C0.66 0.33 1.32 0.66 2 1 C-0.60037428 4.32270047 -2.96767001 4.3548272 -7 5 C-10.08015756 6.54007878 -12.37170948 8.31750185 -15 10.5625 C-18 13 -18 13 -20.75 13.9375 C-23.35022682 14.85886425 -23.35022682 14.85886425 -24.3125 18.125 C-24.6528125 19.548125 -24.6528125 19.548125 -25 21 C-25.33 20.34 -25.66 19.68 -26 19 C-26.66 19 -27.32 19 -28 19 C-26.75371 12.61276375 -22.91577054 9.78283905 -18 6 C-17.236875 5.401875 -16.47375 4.80375 -15.6875 4.1875 C-12.03506863 2.57363498 -8.35907821 2.03644779 -4.42578125 1.4296875 C-2.00027792 1.11861975 -2.00027792 1.11861975 0 0 Z " fill="#B892E5" transform="translate(88,75)"/>
<path d="M0 0 C1.6950077 2.50566356 2.14087197 4.10670596 1.66796875 7.10546875 C1.18014807 9.08833697 0.59586712 11.04688 0 13 C-0.99 13 -1.98 13 -3 13 C-3 10.69 -3 8.38 -3 6 C-3.66 6 -4.32 6 -5 6 C-5 5.34 -5 4.68 -5 4 C-11.11090483 3.90054585 -16.97403427 3.9287172 -23 5 C-19.68847789 2.79231859 -16.35324898 1.53833314 -12.625 0.25 C-11.965 0.00378906 -11.305 -0.24242187 -10.625 -0.49609375 C-6.38447486 -1.95746994 -3.90523922 -2.35324951 0 0 Z " fill="#0C0430" transform="translate(303,283)"/>
<path d="M0 0 C0 0.66 0 1.32 0 2 C-0.96099609 2.38091797 -0.96099609 2.38091797 -1.94140625 2.76953125 C-4.63038826 3.83951366 -7.31511532 4.91978401 -10 6 C-11.04800781 6.40992188 -11.04800781 6.40992188 -12.1171875 6.828125 C-15.36736228 8.13935431 -17.87838029 9.17934951 -20 12 C-20.57947281 14.96243726 -20.57947281 14.96243726 -20.6875 18.1875 C-20.75324219 19.27417969 -20.81898438 20.36085937 -20.88671875 21.48046875 C-20.92410156 22.31191406 -20.96148437 23.14335937 -21 24 C-23.81600575 20.43513954 -25.28020089 17.55872769 -26 13 C-22.92989018 7.49134581 -18.02030588 5.89465581 -12.4375 3.6875 C-11.57447266 3.32849609 -10.71144531 2.96949219 -9.82226562 2.59960938 C-3.44950893 0 -3.44950893 0 0 0 Z " fill="#0F053C" transform="translate(176,183)"/>
<path d="M0 0 C1.87030433 1.62635159 2.89880379 2.53738877 3.4375 5 C4.20203163 7.71833467 5.75265877 8.40511268 8 10 C8 10.66 8 11.32 8 12 C8.99 12.33 9.98 12.66 11 13 C11 13.66 11 14.32 11 15 C11.66 15 12.32 15 13 15 C14.40234375 16.42578125 14.40234375 16.42578125 15.9375 18.3125 C17.86626393 20.66549334 19.83722571 22.86112377 22 25 C25 28.66666667 25 28.66666667 25 31 C25.66 31 26.32 31 27 31 C27.66 32.98 28.32 34.96 29 37 C24.35099335 32.48925377 20.18367562 27.6366469 15.9921875 22.703125 C9.14673421 14.64379816 9.14673421 14.64379816 1 8 C1 7.34 1 6.68 1 6 C-0.32 5.34 -1.64 4.68 -3 4 C-2.01 4 -1.02 4 0 4 C0 2.68 0 1.36 0 0 Z " fill="#4B2AF2" transform="translate(372,217)"/>
<path d="M0 0 C4.3177458 0.50797009 8.03302114 1.19682779 12 3 C12 3.66 12 4.32 12 5 C13.32 5 14.64 5 16 5 C16 5.66 16 6.32 16 7 C16.804375 7.0825 17.60875 7.165 18.4375 7.25 C22.95934205 8.20196675 26.84702701 10.01580179 31 12 C24.84525133 13.91557908 19.03414625 11.66584201 13.4375 8.90625 C11.95231366 8.1153687 10.47309105 7.31318783 9 6.5 C8.23816406 6.09652344 7.47632813 5.69304687 6.69140625 5.27734375 C1.13930861 2.27861722 1.13930861 2.27861722 0 0 Z " fill="#5433BF" transform="translate(138,336)"/>
<path d="M0 0 C2.47661304 2.47661304 2.23492217 3.88330446 2.24884033 7.26228333 C2.24164978 7.99380112 2.23445923 8.72531891 2.22705078 9.47900391 C2.22734283 10.24982803 2.22763489 11.02065216 2.22793579 11.81483459 C2.22653974 14.36885745 2.21096579 16.92259046 2.1953125 19.4765625 C2.19158334 21.24490194 2.18873591 23.01324345 2.18673706 24.78158569 C2.17909293 29.44069095 2.15943778 34.09967194 2.1373291 38.75872803 C2.11688744 43.51100992 2.10773894 48.26331184 2.09765625 53.015625 C2.07619259 62.34380466 2.04204728 71.67189201 2 81 C1.67 81 1.34 81 1 81 C0.99191315 80.07149734 0.98382629 79.14299469 0.97549438 78.18635559 C0.89752043 69.43168806 0.81022113 60.67717371 0.71247292 51.92270374 C0.66254904 47.42205189 0.61621864 42.92142306 0.578125 38.4206543 C0.54122283 34.0763281 0.49484946 29.73219638 0.44193649 25.38803673 C0.42341875 23.73150739 0.40830112 22.0749364 0.39665604 20.4183445 C0.37974862 18.0961584 0.35070321 15.77441513 0.31884766 13.45239258 C0.31668747 12.76906357 0.31452728 12.08573456 0.31230164 11.38169861 C0.24431872 7.49682912 -0.3109371 4.50579823 -2 1 C-1.34 0.67 -0.68 0.34 0 0 Z " fill="#555AEF" transform="translate(108,314)"/>
<path d="M0 0 C4.521341 3.47745275 7.66926817 6.86336941 10.6875 11.6875 C11.07542725 12.29674316 11.46335449 12.90598633 11.86303711 13.53369141 C14.88265024 18.44209219 16.8626742 23.32644369 18 29 C16.68 28.67 15.36 28.34 14 28 C13.81824219 27.14535156 13.63648438 26.29070312 13.44921875 25.41015625 C13.19785156 24.30542969 12.94648438 23.20070313 12.6875 22.0625 C12.44386719 20.96035156 12.20023437 19.85820313 11.94921875 18.72265625 C11.47935547 17.37494141 11.47935547 17.37494141 11 16 C10.01 15.67 9.02 15.34 8 15 C6.71875 13.22265625 6.71875 13.22265625 5.5 11.0625 C3.78461026 8.03307774 3.00765117 7.00510078 0 5 C-0.1875 2.375 -0.1875 2.375 0 0 Z " fill="#654AB3" transform="translate(419,89)"/>
<path d="M0 0 C0.66 0 1.32 0 2 0 C2.23074219 1.13695312 2.46148437 2.27390625 2.69921875 3.4453125 C4.5658997 12.37122971 6.77444756 20.85880329 10.046875 29.375 C11 32 11 32 11 34 C9.35 33.34 7.7 32.68 6 32 C6.21269531 31.42507812 6.42539063 30.85015625 6.64453125 30.2578125 C7.11148196 27.2919058 6.31216315 26.35547163 4.6875 23.875 C0.20672969 16.28258364 -0.27932089 8.65894758 0 0 Z " fill="#765DAE" transform="translate(112,184)"/>
<path d="M0 0 C0.33 0 0.66 0 1 0 C1.01981934 0.83772949 1.03963867 1.67545898 1.06005859 2.53857422 C1.13810612 5.64365834 1.22479635 8.74834539 1.31738281 11.85302734 C1.37454036 13.85886971 1.42168596 15.86498918 1.46875 17.87109375 C1.50742187 19.12792969 1.54609375 20.38476562 1.5859375 21.6796875 C1.6173584 22.84226074 1.6487793 24.00483398 1.68115234 25.20263672 C1.72157869 28.13656482 1.72157869 28.13656482 4 30 C3.9765625 33.0390625 3.9765625 33.0390625 3.625 36.625 C3.51414063 37.81351562 3.40328125 39.00203125 3.2890625 40.2265625 C3.19367187 41.14179688 3.09828125 42.05703125 3 43 C3.66 43.33 4.32 43.66 5 44 C5 45.65 5 47.3 5 49 C5.66 49 6.32 49 7 49 C7.66 51.64 8.32 54.28 9 57 C1.65580016 50.2625859 0.3765612 39.48868513 -0.10049438 30.00146484 C-0.23747095 25.06297181 -0.18418022 20.12681505 -0.125 15.1875 C-0.11493652 13.70508426 -0.1058167 12.22266181 -0.09765625 10.74023438 C-0.07594075 7.16001326 -0.04160246 3.58005192 0 0 Z " fill="#5763E2" transform="translate(42,376)"/>
<path d="M0 0 C0.99 0.33 1.98 0.66 3 1 C2.67 1.33 2.34 1.66 2 2 C3.29091553 1.83701416 4.58183105 1.67402832 5.91186523 1.50610352 C10.76179617 0.9692739 15.53496508 0.87114929 20.41015625 0.90234375 C21.26306747 0.9037587 22.1159787 0.90517365 22.99473572 0.90663147 C25.68402816 0.91217061 28.37323328 0.9247112 31.0625 0.9375 C32.90038941 0.94252288 34.73828015 0.9470844 36.57617188 0.95117188 C41.05081422 0.96212 45.52539238 0.97934161 50 1 C50 1.33 50 1.66 50 2 C48.81035645 2.05534912 47.62071289 2.11069824 46.39501953 2.16772461 C41.94062735 2.37567361 37.48640638 2.58711534 33.03222656 2.79956055 C31.11202348 2.8906686 29.19177645 2.98085561 27.27148438 3.07006836 C24.49597023 3.19917881 21.7206361 3.33170721 18.9453125 3.46484375 C18.1001004 3.50343002 17.25488831 3.5420163 16.38406372 3.58177185 C10.56589784 3.86531036 4.79066544 4.37004891 -1 5 C-1 1 -1 1 0 0 Z " fill="#290897" transform="translate(202,241)"/>
<path d="M0 0 C2.84443872 3.4021718 5.14908864 6.82020858 7.3125 10.6875 C10.11031806 15.57315218 13.12076781 20.1877892 16.421875 24.74609375 C18.07058535 27.10081125 19.54793818 29.52012334 21 32 C20.01 32.66 19.02 33.32 18 34 C17.7525 33.0925 17.505 32.185 17.25 31.25 C15.90633632 27.75647444 14.64117775 26.56571553 12 24 C10.68342309 21.96824551 9.45357253 19.90292932 8.24609375 17.8046875 C6.96268683 15.70825181 6.96268683 15.70825181 4 14 C3.61866701 12.0085944 3.28674418 10.00720923 3 8 C1.16666667 4.83333333 1.16666667 4.83333333 -2 3 C-1.34 3 -0.68 3 0 3 C0 2.01 0 1.02 0 0 Z " fill="#4A1AED" transform="translate(63,257)"/>
<path d="M0 0 C3.12074387 2.26963191 5.6562671 4.68631554 8.125 7.625 C11.9199644 12.08032164 16.17950315 15.91528423 20.546875 19.80078125 C22.42827109 21.48744686 24.24112789 23.18836173 26 25 C23.36 24.67 20.72 24.34 18 24 C18.33 23.01 18.66 22.02 19 21 C18.2575 20.7525 17.515 20.505 16.75 20.25 C13.75026545 18.8864843 12.07922733 17.54127785 10 15 C10 14.01 10 13.02 10 12 C7.525 11.01 7.525 11.01 5 10 C5 9.34 5 8.68 5 8 C4.34 8 3.68 8 3 8 C1.58622659 5.36095629 0.62759865 2.92879371 0 0 Z " fill="#5C42AB" transform="translate(138,244)"/>
<path d="M0 0 C2.54166028 2.54166028 2.60046608 4.16971027 3.1875 7.6875 C3.36667969 8.70199219 3.54585938 9.71648437 3.73046875 10.76171875 C4.03171705 14.38106425 3.55081196 17.40870601 3 21 C2.73864146 24.80943411 2.58891665 28.62229678 2.4375 32.4375 C2.39431641 33.45521484 2.35113281 34.47292969 2.30664062 35.52148438 C2.20131418 38.01421028 2.09918328 40.50702338 2 43 C1.67 43 1.34 43 1 43 C0.67 28.81 0.34 14.62 0 0 Z " fill="#67A2E0" transform="translate(369,353)"/>
<path d="M0 0 C0.99 0.33 1.98 0.66 3 1 C-2.12370176 8.55494848 -8.16119965 15.92428388 -17 19 C-17 16 -17 16 -15.8125 14.375 C-13.58593199 12.68587944 -11.74148672 12.37047118 -9 12 C-8.67 10.68 -8.34 9.36 -8 8 C-6.68 8 -5.36 8 -4 8 C-4 6.35 -4 4.7 -4 3 C-3.01 2.67 -2.02 2.34 -1 2 C-0.67 1.34 -0.34 0.68 0 0 Z " fill="#4F90C5" transform="translate(424,438)"/>
<path d="M0 0 C4.00333149 4.00333149 5.87685285 7.7423023 6.1875 13.4375 C6.125625 14.283125 6.06375 15.12875 6 16 C5.01 16.33 4.02 16.66 3 17 C2.67 16.34 2.34 15.68 2 15 C1.34 14.67 0.68 14.34 0 14 C0 9.38 0 4.76 0 0 Z " fill="#040111" transform="translate(325,327)"/>
<path d="M0 0 C0.33 0 0.66 0 1 0 C1 14.52 1 29.04 1 44 C0.67 44 0.34 44 0 44 C-1.32388229 37.56971459 -2.24794402 31.5705166 -2 25 C-1.67 25 -1.34 25 -1 25 C-0.67 16.75 -0.34 8.5 0 0 Z " fill="#3B11DB" transform="translate(438,305)"/>
<path d="M0 0 C0.66 0.99 1.32 1.98 2 3 C1.67 3.66 1.34 4.32 1 5 C1.66 5 2.32 5 3 5 C4.85776765 8.13498292 5.20140476 10.37471432 5 14 C5.66 14 6.32 14 7 14 C7 15.65 7 17.3 7 19 C7.66 19 8.32 19 9 19 C9 20.98 9 22.96 9 25 C9.66 25 10.32 25 11 25 C11 27.97 11 30.94 11 34 C9.60027998 31.20055996 8.55576483 28.87592244 7.6328125 25.953125 C7.38660156 25.19 7.14039063 24.426875 6.88671875 23.640625 C6.38414533 22.06331765 5.88408975 20.48520554 5.38671875 18.90625 C3.87809612 14.24749825 2.12431445 10.05935644 -0.33251953 5.81542969 C-1.17541522 3.52290139 -0.78096795 2.27088193 0 0 Z " fill="#415DA2" transform="translate(355,310)"/>
<path d="M0 0 C1.88212876 3.76425752 2.24280143 4.7620281 2.13525391 8.67675781 C2.11508209 9.59741028 2.09491028 10.51806274 2.0741272 11.46661377 C2.04193085 12.45216248 2.0097345 13.43771118 1.9765625 14.453125 C1.95153656 15.46848328 1.92651062 16.48384155 1.90072632 17.52996826 C1.81860958 20.77032261 1.72198694 24.01005995 1.625 27.25 C1.56675199 29.44789153 1.50944889 31.64580832 1.453125 33.84375 C1.31304323 39.22950771 1.16105233 44.61483079 1 50 C1.66 50 2.32 50 3 50 C2.67 51.32 2.34 52.64 2 54 C1.34 53.67 0.68 53.34 0 53 C0 35.51 0 18.02 0 0 Z " fill="#B591F1" transform="translate(42,131)"/>
<path d="M0 0 C6.03229582 -0.0494981 12.06447296 -0.08576625 18.09692383 -0.10986328 C20.14837707 -0.11991069 22.19981604 -0.13355092 24.2512207 -0.15087891 C27.20267262 -0.17518246 30.1539349 -0.18649582 33.10546875 -0.1953125 C34.02023483 -0.20563507 34.93500092 -0.21595764 35.87748718 -0.22659302 C40.36493055 -0.22738078 43.92668284 -0.13839902 48 2 C48 2.33 48 2.66 48 3 C44.32729771 3.0781426 40.93609209 2.99194438 37.28125 2.53125 C30.03243917 1.69344774 22.72586176 1.63461322 15.4375 1.4375 C13.93683922 1.39421638 12.43618803 1.3505993 10.93554688 1.30664062 C7.29046701 1.20058203 3.64527818 1.09903743 0 1 C0 0.67 0 0.34 0 0 Z " fill="#4105EA" transform="translate(224,174)"/>
<path d="M0 0 C0 0.66 0 1.32 0 2 C0.680625 2.226875 1.36125 2.45375 2.0625 2.6875 C6.82696082 4.81630164 11.01410653 7.07107799 13.4375 11.8125 C13.623125 12.534375 13.80875 13.25625 14 14 C10.07637354 12.18606214 6.49873216 9.83861478 2.875 7.5 C2.24207031 7.09652344 1.60914063 6.69304687 0.95703125 6.27734375 C-1.56753679 4.65325858 -3.87090028 3.12909972 -6 1 C-4 0 -4 0 0 0 Z " fill="#413FB8" transform="translate(305,256)"/>
<path d="M0 0 C-2.97 0.99 -5.94 1.98 -9 3 C-9 3.66 -9 4.32 -9 5 C-10.91405367 5.67413211 -12.83136026 6.3390332 -14.75 7 C-15.81734375 7.37125 -16.8846875 7.7425 -17.984375 8.125 C-21 9 -21 9 -25 9 C-24.67 8.01 -24.34 7.02 -24 6 C-21.69342986 5.24592899 -19.354248 4.588562 -17 4 C-14.66423029 3.10162703 -12.35716414 2.15204578 -10.0546875 1.171875 C-9.35601562 0.88828125 -8.65734375 0.6046875 -7.9375 0.3125 C-7.28652344 0.04050781 -6.63554687 -0.23148437 -5.96484375 -0.51171875 C-4 -1 -4 -1 0 0 Z " fill="#1F0974" transform="translate(316,349)"/>
<path d="M0 0 C1.98 0 3.96 0 6 0 C6.33 0.99 6.66 1.98 7 3 C7.9075 3.268125 8.815 3.53625 9.75 3.8125 C14.03435049 5.37793575 15.32136934 7.37597029 18 11 C17.01 11.495 17.01 11.495 16 12 C9.99809225 8.88789969 4.46877646 5.08515942 0 0 Z " fill="#5539B2" transform="translate(120,324)"/>
<path d="M0 0 C0.93423645 3.01031744 1.04449911 3.86650268 0 7 C-0.33 7 -0.66 7 -1 7 C-1.13277344 7.73605469 -1.26554687 8.47210938 -1.40234375 9.23046875 C-1.66724609 10.69419922 -1.66724609 10.69419922 -1.9375 12.1875 C-2.11152344 13.15042969 -2.28554688 14.11335938 -2.46484375 15.10546875 C-2.64144531 16.06066406 -2.81804688 17.01585938 -3 18 C-3.14566406 18.88300781 -3.29132812 19.76601562 -3.44140625 20.67578125 C-4 23 -4 23 -6 26 C-6.75885301 16.64081293 -5.00713553 9.47410629 -1 1 C-0.67 0.67 -0.34 0.34 0 0 Z " fill="#9174B7" transform="translate(49,105)"/>
<path d="M0 0 C6.68412752 3.63566563 13.35556707 7.29224236 20 11 C20 11.33 20 11.66 20 12 C15.08079167 12.35137202 12.25498749 11.44435451 8 9 C7.071875 8.505 6.14375 8.01 5.1875 7.5 C3 6 3 6 2 3 C1.34 2.67 0.68 2.34 0 2 C0 1.34 0 0.68 0 0 Z " fill="#4A31A4" transform="translate(164,269)"/>
<path d="M0 0 C1.65 0 3.3 0 5 0 C5 0.66 5 1.32 5 2 C6.19625 2.0825 7.3925 2.165 8.625 2.25 C12.90892646 2.78263739 15.64196482 4.2152879 19 7 C19.33 7.99 19.66 8.98 20 10 C15.58084238 8.60518242 11.40147903 6.92639041 7.1875 5 C6.04667969 4.484375 4.90585937 3.96875 3.73046875 3.4375 C1 2 1 2 0 0 Z " fill="#4633D1" transform="translate(279,247)"/>
<path d="M0 0 C0 0.66 0 1.32 0 2 C-3.43604765 3.71802382 -7.38438896 3.1196618 -11.1640625 3.09765625 C-12.07127045 3.0962413 -12.97847839 3.09482635 -13.91317749 3.09336853 C-16.81715155 3.08776096 -19.72104915 3.07520718 -22.625 3.0625 C-24.59114472 3.05748598 -26.55729065 3.0529229 -28.5234375 3.04882812 C-33.3489879 3.03778906 -38.17448097 3.02051935 -43 3 C-43 2.67 -43 2.34 -43 2 C-41.96593018 1.97494385 -40.93186035 1.9498877 -39.86645508 1.92407227 C-36.01786613 1.8296657 -32.16944371 1.72952709 -28.32104492 1.62768555 C-26.65767319 1.58446216 -24.99426068 1.54277854 -23.33081055 1.50268555 C-20.93525932 1.44467668 -18.53991092 1.38107171 -16.14453125 1.31640625 C-15.4047554 1.29969376 -14.66497955 1.28298126 -13.90278625 1.26576233 C-9.19557451 1.1317057 -4.66359993 0 0 0 Z " fill="#5DBBF6" transform="translate(387,463)"/>
<path d="M0 0 C1.175625 0.5259375 1.175625 0.5259375 2.375 1.0625 C3.674375 1.5265625 3.674375 1.5265625 5 2 C5.66 1.67 6.32 1.34 7 1 C7.99 2.32 8.98 3.64 10 5 C8.68 5 7.36 5 6 5 C6 5.99 6 6.98 6 8 C4.35 8 2.7 8 1 8 C1 8.66 1 9.32 1 10 C-0.65 10 -2.3 10 -4 10 C-3.360625 9.7525 -2.72125 9.505 -2.0625 9.25 C0.13144244 8.19229237 0.13144244 8.19229237 0.8125 6.125 C1.01502672 3.82969717 0.70156953 2.18266076 0 0 Z " fill="#59B3F7" transform="translate(393,453)"/>
<path d="M0 0 C2.88375261 2.6134008 4.86661066 5.63451089 7 8.875 C8.0209375 10.41800781 8.0209375 10.41800781 9.0625 11.9921875 C9.701875 12.98476563 10.34125 13.97734375 11 15 C11.58394531 15.90363281 12.16789062 16.80726563 12.76953125 17.73828125 C14 20 14 20 13.6875 22.3125 C13.460625 22.869375 13.23375 23.42625 13 24 C11 21 11 21 11 18 C10.34 18 9.68 18 9 18 C7.75766478 16.11012684 6.60490256 14.1608747 5.5 12.1875 C3.73367149 9.05526066 1.99509124 5.99263686 0 3 C0 2.01 0 1.02 0 0 Z " fill="#5E67FE" transform="translate(401,256)"/>
<path d="M0 0 C4.85221529 3.77394523 8.84946091 7.95373968 12.8125 12.625 C13.29243408 13.18727295 13.77236816 13.7495459 14.2668457 14.32885742 C16.56729214 17.08017994 18.60009326 19.68230195 20 23 C18.0625 22.1875 18.0625 22.1875 16 21 C15.67 20.01 15.34 19.02 15 18 C14.34 18 13.68 18 13 18 C10.62284276 15.99427358 9.18633587 14.48447326 8.0625 11.5625 C6.69391392 8.26179239 4.54064802 6.47713182 2 4 C1.29453318 2.68678304 0.619236 1.35601217 0 0 Z " fill="#5A5BFE" transform="translate(379,230)"/>
<path d="M0 0 C-5.40956032 5.40956032 -13.67854823 6.52764827 -21 7 C-16.02224291 1.20920925 -7.34631714 -0.65300597 0 0 Z " fill="#9073B0" transform="translate(98,71)"/>
<path d="M0 0 C-1.98 0.66 -3.96 1.32 -6 2 C-6.33 3.65 -6.66 5.3 -7 7 C-7.33 5.68 -7.66 4.36 -8 3 C-8.6290625 3.144375 -9.258125 3.28875 -9.90625 3.4375 C-15.40566619 4.63014447 -20.37666943 5.2082715 -26 5 C-26 4.67 -26 4.34 -26 4 C-22.42010978 3.13094278 -18.83566807 2.28237304 -15.25 1.4375 C-14.23421875 1.19064453 -13.2184375 0.94378906 -12.171875 0.68945312 C-11.1921875 0.46064453 -10.2125 0.23183594 -9.203125 -0.00390625 C-8.30239258 -0.21861572 -7.40166016 -0.4333252 -6.47363281 -0.65454102 C-3.95701536 -1.00600309 -2.38749855 -0.80151737 0 0 Z " fill="#1A0962" transform="translate(291,287)"/>
<path d="M0 0 C2.64 0.33 5.28 0.66 8 1 C8 1.66 8 2.32 8 3 C9.0725 3.0825 10.145 3.165 11.25 3.25 C15.2738451 4.05476902 16.48169253 4.87729874 19 8 C17 9 17 9 14.86328125 8.36328125 C9.66573601 6.22217915 4.80329794 3.92374657 0 1 C0 0.67 0 0.34 0 0 Z " fill="#485EC0" transform="translate(72,456)"/>
<path d="M0 0 C7.52592433 0.6377902 14.67098882 2.19889833 22 4 C22 4.33 22 4.66 22 5 C14.06714481 5.36801906 7.4654395 4.77476512 0 2 C0 1.34 0 0.68 0 0 Z " fill="#4421BB" transform="translate(176,353)"/>
<path d="M0 0 C0.66 0.33 1.32 0.66 2 1 C1.83628906 1.54140625 1.67257813 2.0828125 1.50390625 2.640625 C0.91409413 5.40222593 0.90390692 7.92818139 0.9375 10.75 C0.95103516 12.22726563 0.95103516 12.22726563 0.96484375 13.734375 C0.97644531 14.48203125 0.98804688 15.2296875 1 16 C-1.81600575 12.43513954 -3.28020089 9.55872769 -4 5 C-2.125 2.0625 -2.125 2.0625 0 0 Z " fill="#050214" transform="translate(154,191)"/>
<path d="M0 0 C-0.7425 0.37125 -1.485 0.7425 -2.25 1.125 C-5.47464465 3.32362135 -7.00778279 5.67963799 -9 9 C-9.33 8.01 -9.66 7.02 -10 6 C-10.99 5.67 -11.98 5.34 -13 5 C-13 4.01 -13 3.02 -13 2 C-11.5882217 1.46605821 -10.17029756 0.94834896 -8.75 0.4375 C-7.96109375 0.14746094 -7.1721875 -0.14257812 -6.359375 -0.44140625 C-3.80896548 -1.04522837 -2.44677771 -0.8473932 0 0 Z " fill="#1C086F" transform="translate(189,180)"/>
<path d="M0 0 C0.33 0 0.66 0 1 0 C1.34855655 7.62951555 1.0017506 13.92444501 -2 21 C-2.33 21 -2.66 21 -3 21 C-2.88513575 18.62412376 -2.75841844 16.24984829 -2.625 13.875 C-2.5940625 13.20984375 -2.563125 12.5446875 -2.53125 11.859375 C-2.28080367 7.60178738 -1.52471803 3.97914217 0 0 Z " fill="#5092C7" transform="translate(438,402)"/>
<path d="M0 0 C1.32 0.33 2.64 0.66 4 1 C4 1.99 4 2.98 4 4 C4.99 4.33 5.98 4.66 7 5 C8.60546875 6.5234375 8.60546875 6.5234375 10.1875 8.375 C10.71730469 8.98085938 11.24710938 9.58671875 11.79296875 10.2109375 C13 12 13 12 13 15 C8.81784988 13.4748581 6.75426869 10.42471454 4.25 6.9375 C3.63318359 6.10508789 3.63318359 6.10508789 3.00390625 5.25585938 C0 1.15916995 0 1.15916995 0 0 Z " fill="#4B59C1" transform="translate(51,434)"/>
<path d="M0 0 C0.66 0 1.32 0 2 0 C2 2.64 2 5.28 2 8 C2.99 8 3.98 8 5 8 C5 9.65 5 11.3 5 13 C4.34 13 3.68 13 3 13 C2.01 13.99 1.02 14.98 0 16 C0 10.72 0 5.44 0 0 Z " fill="#4203F5" transform="translate(43,208)"/>
<path d="M0 0 C0.33 0 0.66 0 1 0 C1.53321262 2.22623801 2.05110119 4.45615004 2.5625 6.6875 C2.85253906 7.92886719 3.14257812 9.17023438 3.44140625 10.44921875 C3.96241956 13.76111454 3.91852996 15.81860153 3 19 C2.34 19 1.68 19 1 19 C0.15976812 14.64667264 -0.10770995 10.55557481 -0.0625 6.125 C-0.05347656 4.97257812 -0.04445313 3.82015625 -0.03515625 2.6328125 C-0.02355469 1.76398438 -0.01195312 0.89515625 0 0 Z " fill="#4F7BC7" transform="translate(366,335)"/>
<path d="M0 0 C0.66 1.32 1.32 2.64 2 4 C2.65226563 3.7834375 3.30453125 3.566875 3.9765625 3.34375 C8.77521132 1.81497692 12.89921898 0.59730676 18 1 C15.35029405 2.76647063 12.98501901 3.97014997 10.0625 5.1875 C9.20785156 5.55230469 8.35320312 5.91710937 7.47265625 6.29296875 C4.79949779 7.05733159 3.56209622 6.99159429 1 6 C0 5 0 5 -0.0625 2.4375 C-0.041875 1.633125 -0.02125 0.82875 0 0 Z " fill="#120741" transform="translate(184,247)"/>
<path d="M0 0 C0.99 0.33 1.98 0.66 3 1 C4.72330907 8.09326321 5.2494783 14.70968976 5 22 C4.67 22 4.34 22 4 22 C3.79503906 20.83082031 3.59007812 19.66164063 3.37890625 18.45703125 C3.10680145 16.90884878 2.83466433 15.360672 2.5625 13.8125 C2.42779297 13.04357422 2.29308594 12.27464844 2.15429688 11.48242188 C1.47910296 7.64534426 0.78767223 3.81600432 0 0 Z " fill="#6586FD" transform="translate(432,327)"/>
<path d="M0 0 C2.97 0.495 2.97 0.495 6 1 C5.01 1.495 5.01 1.495 4 2 C4.495 2.94875 4.99 3.8975 5.5 4.875 C7 8 7 8 7 10 C7.66 10 8.32 10 9 10 C10.0625 11.8125 10.0625 11.8125 11 14 C10.67 14.99 10.34 15.98 10 17 C8.32771465 14.545324 6.6620314 12.08660326 5 9.625 C4.52304687 8.92632812 4.04609375 8.22765625 3.5546875 7.5078125 C2.87792969 6.50234375 2.87792969 6.50234375 2.1875 5.4765625 C1.76855469 4.85861816 1.34960938 4.24067383 0.91796875 3.60400391 C0 2 0 2 0 0 Z " fill="#421EF1" transform="translate(401,254)"/>
<path d="M0 0 C0.33 0 0.66 0 1 0 C1 5.61 1 11.22 1 17 C-2.24813674 13.75186326 -2.67589292 9.48817851 -3 5 C-1.6875 1.875 -1.6875 1.875 0 0 Z " fill="#3F03F7" transform="translate(437,315)"/>
<path d="M0 0 C0.66 0.33 1.32 0.66 2 1 C2.33 6.61 2.66 12.22 3 18 C-1 14 -1 14 -1.171875 10.546875 C-1.03265625 9.29390625 -0.8934375 8.0409375 -0.75 6.75 C-0.62109375 5.48671875 -0.4921875 4.2234375 -0.359375 2.921875 C-0.24078125 1.95765625 -0.1221875 0.9934375 0 0 Z " fill="#07031F" transform="translate(176,234)"/>
<path d="M0 0 C3.93234192 1.52924408 7.63917062 3.35924911 11.375 5.3125 C11.375 5.6425 11.375 5.9725 11.375 6.3125 C6.4470924 6.6644934 3.68945224 5.6135412 -0.625 3.3125 C-1.615 3.3125 -2.605 3.3125 -3.625 3.3125 C-3.955 2.3225 -4.285 1.3325 -4.625 0.3125 C-2.625 -0.6875 -2.625 -0.6875 0 0 Z " fill="#3B2EB1" transform="translate(320.625,188.6875)"/>
<path d="M0 0 C7.875 0.875 7.875 0.875 9 2 C10.11375 2.144375 11.2275 2.28875 12.375 2.4375 C16 3 16 3 19 5 C11.75949367 6.25316456 11.75949367 6.25316456 8 5 C7.34 5 6.68 5 6 5 C4.97803008 4.02246356 3.98020375 3.0194119 3 2 C2.01 1.34 1.02 0.68 0 0 Z " fill="#412EC8" transform="translate(299,183)"/>
<path d="M0 0 C2.375 1.4375 2.375 1.4375 3.8125 3.875 C3.998125 4.720625 4.18375 5.56625 4.375 6.4375 C3.385 7.9225 3.385 7.9225 2.375 9.4375 C1.900625 8.9425 1.42625 8.4475 0.9375 7.9375 C-0.38423698 6.32207803 -0.38423698 6.32207803 -1.625 6.4375 C-1.625 4.7875 -1.625 3.1375 -1.625 1.4375 C-3.275 1.4375 -4.925 1.4375 -6.625 1.4375 C-4.0742598 -0.26299347 -3.05397233 -0.65442264 0 0 Z " fill="#050215" transform="translate(300.625,281.5625)"/>
<path d="M0 0 C2.73544525 2.38172388 3.92545358 4.70665291 5.25 8.0625 C5.60578125 8.94035156 5.9615625 9.81820312 6.328125 10.72265625 C7 13 7 13 6 15 C5.01 14.67 4.02 14.34 3 14 C2.05078125 11.85546875 2.05078125 11.85546875 1.3125 9.1875 C1.06113281 8.31480469 0.80976563 7.44210938 0.55078125 6.54296875 C0 4 0 4 0 0 Z " fill="#5F43B3" transform="translate(430,103)"/>
<path d="M0 0 C0.33 0 0.66 0 1 0 C1 3.3 1 6.6 1 10 C1.66 10 2.32 10 3 10 C3 15.28 3 20.56 3 26 C2.67 26 2.34 26 2 26 C1.92652344 24.89591797 1.92652344 24.89591797 1.8515625 23.76953125 C1.77679688 22.79371094 1.70203125 21.81789062 1.625 20.8125 C1.55539063 19.84957031 1.48578125 18.88664062 1.4140625 17.89453125 C1.11586603 14.9963402 1.11586603 14.9963402 -0.02734375 12.43359375 C-1.062459 9.84372709 -1.23863225 8.02043803 -1.1875 5.25 C-1.18105469 4.47140625 -1.17460938 3.6928125 -1.16796875 2.890625 C-1 1 -1 1 0 0 Z " fill="#AD87EF" transform="translate(109,166)"/>
<path d="M0 0 C2 2 2 2 2.22705078 4.79736328 C2.21657715 5.95993652 2.20610352 7.12250977 2.1953125 8.3203125 C2.18886719 9.57714844 2.18242188 10.83398438 2.17578125 12.12890625 C2.15902344 13.44761719 2.14226562 14.76632812 2.125 16.125 C2.11496983 17.46483721 2.10584404 18.80468152 2.09765625 20.14453125 C2.07402075 23.42986573 2.04107234 26.71484465 2 30 C1.67 30 1.34 30 1 30 C0.98018066 29.29915283 0.96036133 28.59830566 0.93994141 27.8762207 C0.84443834 24.68794838 0.73486129 21.50030853 0.625 18.3125 C0.5940625 17.20970703 0.563125 16.10691406 0.53125 14.97070312 C0.49257812 13.90400391 0.45390625 12.83730469 0.4140625 11.73828125 C0.3826416 10.75899658 0.3512207 9.77971191 0.31884766 8.77075195 C-0.01429569 5.87577199 -0.79800587 3.64227833 -2 1 C-1.34 0.67 -0.68 0.34 0 0 Z " fill="#5042EE" transform="translate(108,314)"/>
<path d="M0 0 C0.66 0.33 1.32 0.66 2 1 C2 1.66 2 2.32 2 3 C2.57234375 3.27714844 3.1446875 3.55429687 3.734375 3.83984375 C5.97767477 4.98856794 8.10876289 6.23413994 10.25 7.5625 C10.95640625 7.99691406 11.6628125 8.43132812 12.390625 8.87890625 C12.92171875 9.24886719 13.4528125 9.61882812 14 10 C14 10.33 14 10.66 14 11 C11.3125 11.375 11.3125 11.375 8 11 C6.09903895 9.008517 4.59903682 7.19265919 3 5 C1.68456137 3.64900897 0.35824882 2.30794331 -1 1 C-0.67 0.67 -0.34 0.34 0 0 Z " fill="#694AD0" transform="translate(110,313)"/>
<path d="M0 0 C2.55272776 2.55272776 2.60294935 4.21632538 3.1875 7.75 C3.36667969 8.77609375 3.54585938 9.8021875 3.73046875 10.859375 C4.01026878 14.11965362 3.67341448 16.80963921 3 20 C2.67 20 2.34 20 2 20 C-0.29612756 6.3667426 -0.29612756 6.3667426 0 0 Z " fill="#5E9FEF" transform="translate(369,353)"/>
<path d="M0 0 C2.875 0.625 2.875 0.625 6 2 C7.25 5.0625 7.25 5.0625 8 8 C8.66 8.33 9.32 8.66 10 9 C10.625 11.5625 10.625 11.5625 11 14 C7.11807874 10.23225289 3.20468119 6.37202211 0 2 C0 1.34 0 0.68 0 0 Z " fill="#39469A" transform="translate(335,285)"/>
<path d="M0 0 C1.65652924 2.48479386 3.16072474 4.9636255 4.625 7.5625 C5.07101563 8.34753906 5.51703125 9.13257813 5.9765625 9.94140625 C7 12 7 12 7 14 C6.34 14 5.68 14 5 14 C5 13.34 5 12.68 5 12 C3.68 11.67 2.36 11.34 1 11 C-0.17571451 7.32589215 -0.07366746 3.83070817 0 0 Z " fill="#6B51A6" transform="translate(123,218)"/>
<path d="M0 0 C5.80342274 1.48805711 10.17590879 4.59097555 15 8 C12 9 12 9 9 8 C9 7.34 9 6.68 9 6 C7.6078125 5.566875 7.6078125 5.566875 6.1875 5.125 C3 4 3 4 0 2 C0 1.34 0 0.68 0 0 Z " fill="#6249A7" transform="translate(400,76)"/>
<path d="M0 0 C1.87030433 1.62635159 2.89880379 2.53738877 3.4375 5 C4.20391605 7.72503485 5.67901268 8.50258883 8 10 C7.67 10.99 7.34 11.98 7 13 C4.95880212 11.38405168 2.95927063 9.7143618 1 8 C1 7.34 1 6.68 1 6 C-0.32 5.34 -1.64 4.68 -3 4 C-2.01 4 -1.02 4 0 4 C0 2.68 0 1.36 0 0 Z " fill="#5536F2" transform="translate(372,217)"/>
<path d="M0 0 C0.33 0 0.66 0 1 0 C1.50604924 2.39469729 2.00499517 4.79051717 2.5 7.1875 C2.64308594 7.86103516 2.78617188 8.53457031 2.93359375 9.22851562 C3.68069842 12.87509793 4.17352282 16.27648957 4 20 C3.34 20 2.68 20 2 20 C2 17.36 2 14.72 2 12 C1.34 12 0.68 12 0 12 C0 8.04 0 4.08 0 0 Z " fill="#4A11E6" transform="translate(43,196)"/>
<path d="M0 0 C0.99 0 1.98 0 3 0 C1.53967505 5.31027254 -0.98320986 9.46330032 -4 14 C-4.625 12.1875 -4.625 12.1875 -5 10 C-4.34 9.01 -3.68 8.02 -3 7 C-2.34 7 -1.68 7 -1 7 C-0.67 4.69 -0.34 2.38 0 0 Z " fill="#538BBD" transform="translate(432,424)"/>
<path d="M0 0 C1.98 0.99 1.98 0.99 4 2 C3.34 2 2.68 2 2 2 C2 10.58 2 19.16 2 28 C1.67 28 1.34 28 1 28 C0.67 18.76 0.34 9.52 0 0 Z " fill="#5045D0" transform="translate(109,316)"/>
<path d="M0 0 C2.375 0.25 2.375 0.25 5 1 C6.3125 3.0625 6.3125 3.0625 7 5 C7.66 5 8.32 5 9 5 C9.33 6.65 9.66 8.3 10 10 C2.51708428 3.84965831 2.51708428 3.84965831 0 0 Z " fill="#4750B9" transform="translate(325,275)"/>
<path d="M0 0 C3.25548753 3.02295271 5.68977058 6.20462309 8 10 C8 10.66 8 11.32 8 12 C7.01 12 6.02 12 5 12 C3.61328125 10.390625 3.61328125 10.390625 2.3125 8.25 C1.87550781 7.55390625 1.43851563 6.8578125 0.98828125 6.140625 C0 4 0 4 0 0 Z " fill="#6048A1" transform="translate(130,232)"/>
<path d="M0 0 C1 3 1 3 0 6 C-0.495 6.45375 -0.99 6.9075 -1.5 7.375 C-3.43309736 9.46918881 -3.62452796 11.22150692 -4 14 C-4.99 13.67 -5.98 13.34 -7 13 C-5.58832253 7.73829306 -3.25149768 4.27828642 0 0 Z " fill="#5AACF3" transform="translate(431,425)"/>
<path d="M0 0 C1.98 0.99 1.98 0.99 4 2 C4 2.66 4 3.32 4 4 C4.5775 4.226875 5.155 4.45375 5.75 4.6875 C8.5663661 6.33038023 10.08077114 8.39533227 12 11 C10.68 10.67 9.36 10.34 8 10 C8 9.34 8 8.68 8 8 C6.68 7.67 5.36 7.34 4 7 C4 6.34 4 5.68 4 5 C3.34 5 2.68 5 2 5 C1.34 3.35 0.68 1.7 0 0 Z " fill="#5939F4" transform="translate(95,302)"/>
<path d="M0 0 C0.33 0 0.66 0 1 0 C1 2.97 1 5.94 1 9 C1.66 9 2.32 9 3 9 C3 11.31 3 13.62 3 16 C2.01 15.67 1.02 15.34 0 15 C-0.19517554 13.06325815 -0.38087873 11.12555991 -0.5625 9.1875 C-0.66691406 8.10855469 -0.77132812 7.02960938 -0.87890625 5.91796875 C-1 3 -1 3 0 0 Z " fill="#0A0328" transform="translate(180,239)"/>
<path d="M0 0 C0.66 0 1.32 0 2 0 C2.36463732 1.74784829 2.7163078 3.49840502 3.0625 5.25 C3.25972656 6.22453125 3.45695312 7.1990625 3.66015625 8.203125 C3.98397535 10.868119 3.85503199 12.48871723 3 15 C2 14 2 14 1.9375 11.4375 C1.958125 10.633125 1.97875 9.82875 2 9 C1.34 9 0.68 9 0 9 C0 6.03 0 3.06 0 0 Z " fill="#685294" transform="translate(112,184)"/>
<path d="M0 0 C0.66 0.33 1.32 0.66 2 1 C2 1.99 2 2.98 2 4 C1.01 4.495 1.01 4.495 0 5 C-0.66 5.99 -1.32 6.98 -2 8 C-2.6875 5.6875 -2.6875 5.6875 -3 3 C-1.5625 1.1875 -1.5625 1.1875 0 0 Z M-4 6 C-3.34 6.99 -2.68 7.98 -2 9 C-2.99 10.32 -3.98 11.64 -5 13 C-4.67 10.69 -4.34 8.38 -4 6 Z " fill="#BF97F5" transform="translate(52,104)"/>
<path d="M0 0 C1.32 0.66 2.64 1.32 4 2 C2.39967863 2.84069415 0.79458829 3.67231505 -0.8125 4.5 C-2.15248047 5.19609375 -2.15248047 5.19609375 -3.51953125 5.90625 C-6 7 -6 7 -9 7 C-9 6.34 -9 5.68 -9 5 C-7.35 5 -5.7 5 -4 5 C-4 4.01 -4 3.02 -4 2 C-2.68 2 -1.36 2 0 2 C0 1.34 0 0.68 0 0 Z " fill="#508ABB" transform="translate(403,456)"/>
<path d="M0 0 C0.66 0.33 1.32 0.66 2 1 C1.38125 1.53625 0.7625 2.0725 0.125 2.625 C-2.2782902 5.31103023 -3.06022153 7.55414562 -4 11 C-4.33 10.34 -4.66 9.68 -5 9 C-5.66 9 -6.32 9 -7 9 C-6.82374165 6.62051228 -6.30280227 5.29774151 -4.59765625 3.62109375 C-3.09350908 2.37884514 -1.54870149 1.18623944 0 0 Z " fill="#C49BF3" transform="translate(67,85)"/>
<path d="M0 0 C1.485 0.99 1.485 0.99 3 2 C3.1875 4.625 3.1875 4.625 3 7 C3.66 7 4.32 7 5 7 C5.66 9.64 6.32 12.28 7 15 C4.47138427 12.73946101 3.16143472 10.60099936 1.8125 7.5 C1.46832031 6.7265625 1.12414063 5.953125 0.76953125 5.15625 C0 3 0 3 0 0 Z " fill="#38469C" transform="translate(44,418)"/>
<path d="M0 0 C-4.455 1.485 -4.455 1.485 -9 3 C-9 3.66 -9 4.32 -9 5 C-10.98 5.33 -12.96 5.66 -15 6 C-10.8161798 1.14676857 -6.38809262 -1.59702316 0 0 Z " fill="#190A5A" transform="translate(316,349)"/>
<path d="M0 0 C-0.66 1.32 -1.32 2.64 -2 4 C-2.66 4 -3.32 4 -4 4 C-4.33 4.66 -4.66 5.32 -5 6 C-4.67 4.35 -4.34 2.7 -4 1 C-4.99 1 -5.98 1 -7 1 C-7 0.34 -7 -0.32 -7 -1 C-3.51418144 -2.2020064 -3.32007656 -2.21338437 0 0 Z " fill="#577BF7" transform="translate(359,306)"/>
<path d="M0 0 C5.39795989 1.15058556 10.70987333 2.42421759 16 4 C16 4.33 16 4.66 16 5 C12.04 4.67 8.08 4.34 4 4 C4 3.34 4 2.68 4 2 C2.68 1.34 1.36 0.68 0 0 Z " fill="#311887" transform="translate(192,285)"/>
<path d="M0 0 C5.75 -0.125 5.75 -0.125 8 1 C8 1.66 8 2.32 8 3 C8.99 3.33 9.98 3.66 11 4 C10.67 4.66 10.34 5.32 10 6 C8.88625 5.505 7.7725 5.01 6.625 4.5 C3.34584251 2.8725494 3.34584251 2.8725494 1 3 C0.01 2.67 -0.98 2.34 -2 2 C-1.34 2 -0.68 2 0 2 C0 1.34 0 0.68 0 0 Z " fill="#754EEF" transform="translate(156,268)"/>
<path d="M0 0 C9.09677419 0.90967742 9.09677419 0.90967742 12 3 C12.33 3.99 12.66 4.98 13 6 C8.52761347 4.58192622 4.28853694 2.88695626 0 1 C0 0.67 0 0.34 0 0 Z " fill="#372DA1" transform="translate(286,251)"/>
<path d="M0 0 C1.72880982 -0.05449838 3.45812712 -0.09301688 5.1875 -0.125 C6.15042969 -0.14820313 7.11335938 -0.17140625 8.10546875 -0.1953125 C11.12812778 0.0086456 13.26769985 0.73125368 16 2 C16 2.33 16 2.66 16 3 C10.36718401 3.2396943 5.45461169 2.38529821 0 1 C0 0.67 0 0.34 0 0 Z " fill="#400DE0" transform="translate(256,174)"/>
<path d="M0 0 C1 3 1 3 0.3125 5.625 C-1 8 -1 8 -3.125 8.8125 C-3.74375 8.874375 -4.3625 8.93625 -5 9 C-3.7508258 5.54074837 -2.32472205 2.85306797 0 0 Z " fill="#8E70AE" transform="translate(55,96)"/>
<path d="M0 0 C0 0.66 0 1.32 0 2 C-2.88415883 3.44207941 -5.41721528 3.09394887 -8.625 3.0625 C-9.81351562 3.05347656 -11.00203125 3.04445313 -12.2265625 3.03515625 C-13.14179688 3.02355469 -14.05703125 3.01195312 -15 3 C-15 2.67 -15 2.34 -15 2 C-13.06302033 1.66365624 -11.12539514 1.33102835 -9.1875 1 C-7.56908203 0.7215625 -7.56908203 0.7215625 -5.91796875 0.4375 C-3 0 -3 0 0 0 Z " fill="#61B6EE" transform="translate(387,463)"/>
<path d="M0 0 C1.98 0.99 1.98 0.99 4 2 C4 2.99 4 3.98 4 5 C4.99 5 5.98 5 7 5 C6.67 6.65 6.34 8.3 6 10 C3.25722422 6.80009492 1.3697164 3.99500618 0 0 Z " fill="#4158A8" transform="translate(348,302)"/>
<path d="M0 0 C2.35333796 4.70667591 2.17102038 6.8693886 2 12 C1.01 12.33 0.02 12.66 -1 13 C-0.67 8.71 -0.34 4.42 0 0 Z " fill="#598CFB" transform="translate(427,307)"/>
<path d="M0 0 C0.66 0.66 1.32 1.32 2 2 C1.96712417 4.72869407 1.43602229 7.2966618 1 10 C-0.95418308 7.06872538 -1.64700993 5.44165321 -2 2 C-1.34 1.34 -0.68 0.68 0 0 Z " fill="#0A0428" transform="translate(308,300)"/>
<path d="M0 0 C3.3 0.33 6.6 0.66 10 1 C10 1.66 10 2.32 10 3 C11.65 3 13.3 3 15 3 C13.359375 4.1171875 13.359375 4.1171875 11 5 C8.203125 4.3203125 8.203125 4.3203125 5.25 3.125 C4.26515625 2.73570312 3.2803125 2.34640625 2.265625 1.9453125 C1.14414063 1.47738281 1.14414063 1.47738281 0 1 C0 0.67 0 0.34 0 0 Z " fill="#5026E3" transform="translate(198,289)"/>
<path d="M0 0 C4.04420651 1.77945087 7.46078487 4.39529673 11 7 C10.34 7.66 9.68 8.32 9 9 C8.5875 8.54625 8.175 8.0925 7.75 7.625 C6.08564502 5.9077669 6.08564502 5.9077669 3.9375 5.0625 C1.54421293 3.75005225 0.99594253 2.48985633 0 0 Z " fill="#2F3092" transform="translate(349,205)"/>
<path d="M0 0 C0.66 0.33 1.32 0.66 2 1 C-0.81070808 5.21606212 -4.5572744 6.79754241 -9 9 C-8.06725891 7.87105124 -7.12859878 6.74699124 -6.1875 5.625 C-5.66542969 4.99851562 -5.14335938 4.37203125 -4.60546875 3.7265625 C-3 2 -3 2 0 0 Z " fill="#6A5384" transform="translate(70,81)"/>
<path d="M0 0 C0.99 0.33 1.98 0.66 3 1 C2.67 1.99 2.34 2.98 2 4 C3.65 4 5.3 4 7 4 C6.67 4.66 6.34 5.32 6 6 C4.35 5.67 2.7 5.34 1 5 C1 4.34 1 3.68 1 3 C0.01 2.67 -0.98 2.34 -2 2 C-1.34 1.34 -0.68 0.68 0 0 Z " fill="#6C44F3" transform="translate(136,330)"/>
<path d="M0 0 C-1.32 1.65 -2.64 3.3 -4 5 C-4 4.34 -4 3.68 -4 3 C-4.99 3 -5.98 3 -7 3 C-6.67 2.01 -6.34 1.02 -6 0 C-3 -1 -3 -1 0 0 Z " fill="#2C06AD" transform="translate(196,180)"/>
<path d="M0 0 C1.1725131 0.95117134 2.33787015 1.91117009 3.5 2.875 C4.47453125 3.67550781 4.47453125 3.67550781 5.46875 4.4921875 C5.9740625 4.98976563 6.479375 5.48734375 7 6 C7 6.66 7 7.32 7 8 C4.13792848 6.71700242 1.9754912 5.469364 0 3 C0 2.01 0 1.02 0 0 Z " fill="#562FF2" transform="translate(84,289)"/>
<path d="M0 0 C2.5 1.25 2.5 1.25 5 3 C5 4.32 5 5.64 5 7 C2 6 2 6 0 3 C0 2.01 0 1.02 0 0 Z " fill="#7455D0" transform="translate(425,98)"/>
<path d="M0 0 C2.64 0.33 5.28 0.66 8 1 C8.33 2.32 8.66 3.64 9 5 C5.54074837 3.7508258 2.85306797 2.32472205 0 0 Z " fill="#4252A9" transform="translate(72,456)"/>
<path d="M0 0 C1.32 0.33 2.64 0.66 4 1 C4 1.99 4 2.98 4 4 C4.66 4.33 5.32 4.66 6 5 C5.67 5.99 5.34 6.98 5 8 C4.16382818 6.8562364 3.33113541 5.70992861 2.5 4.5625 C2.0359375 3.92441406 1.571875 3.28632813 1.09375 2.62890625 C0 1 0 1 0 0 Z " fill="#434FAE" transform="translate(51,434)"/>
<path d="M0 0 C1.98 0.495 1.98 0.495 4 1 C4 2.32 4 3.64 4 5 C4.33 5.66 4.66 6.32 5 7 C1.83884224 5.63016497 1.0072908 5.0109362 -1 2 C-0.67 1.34 -0.34 0.68 0 0 Z " fill="#3940A8" transform="translate(320,268)"/>
<path d="M0 0 C0.66 0 1.32 0 2 0 C2 0.66 2 1.32 2 2 C3.32 2.33 4.64 2.66 6 3 C6 3.99 6 4.98 6 6 C3.5625 5.25 3.5625 5.25 1 4 C0.1875 1.875 0.1875 1.875 0 0 Z " fill="#586AE9" transform="translate(334,281)"/>
<path d="M0 0 C5.75 1.75 5.75 1.75 8 4 C2.25 4.125 2.25 4.125 0 3 C0 2.01 0 1.02 0 0 Z " fill="#3C258E" transform="translate(184,281)"/>
<path d="M0 0 C0.33 1.65 0.66 3.3 1 5 C-1.91517292 3.92598892 -3.77810176 3.22189824 -6 1 C-4 0 -4 0 0 0 Z " fill="#3C37B4" transform="translate(305,256)"/>
<path d="M0 0 C2.88437779 1.29299694 4.87219421 2.65941363 7 5 C5.35 5 3.7 5 2 5 C1.34 3.35 0.68 1.7 0 0 Z " fill="#313590" transform="translate(360,213)"/>
<path d="M0 0 C5.41538462 -0.36923077 5.41538462 -0.36923077 8.375 1.5 C8.91125 1.995 9.4475 2.49 10 3 C4.58461538 3.36923077 4.58461538 3.36923077 1.625 1.5 C1.08875 1.005 0.5525 0.51 0 0 Z " fill="#3F38B7" transform="translate(322,192)"/>
</svg>
